<svg xmlns="http://www.w3.org/2000/svg" xmlns:xlink="http://www.w3.org/1999/xlink" width="174.424" height="200" viewBox="0 0 174.424 200"><defs><clipPath id="a"><rect width="174.424" height="200" fill="none"/></clipPath></defs><g clip-path="url(#a)"><path d="M170.011,195.578H4.285a1.742,1.742,0,0,1-1.743-1.743V72.519a1.742,1.742,0,0,1,1.743-1.742H170.011a1.742,1.742,0,0,1,1.743,1.742V193.835a1.742,1.742,0,0,1-1.743,1.743" transform="translate(0.065 1.815)" fill="#ffc134"/><path d="M164.732,69.985H137.769a47.282,47.282,0,0,0,.348-5.278V50.9a50.905,50.905,0,0,0-101.81,0v13.8a47.287,47.287,0,0,0,.351,5.278H9.691A9.7,9.7,0,0,0,0,79.678v110.63A9.7,9.7,0,0,0,9.691,200H164.732a9.7,9.7,0,0,0,9.691-9.692V79.678a9.7,9.7,0,0,0-9.691-9.693M41.521,64.707V50.9a45.691,45.691,0,0,1,91.382,0v13.8a41.692,41.692,0,0,1-.351,5.278H41.876a41.987,41.987,0,0,1-.355-5.278m127.688,125.6a4.482,4.482,0,0,1-4.477,4.477H9.691a4.482,4.482,0,0,1-4.477-4.477V79.678A4.482,4.482,0,0,1,9.691,75.2H164.732a4.482,4.482,0,0,1,4.477,4.478Z" transform="translate(0 0)" fill="#050605"/><path d="M101.745,122.449a16.3,16.3,0,1,0-20.476,15.7V163.9a4.172,4.172,0,0,0,8.344,0V138.144a16.283,16.283,0,0,0,12.132-15.7" transform="translate(1.773 2.722)" fill="#050605"/></g></svg>