<svg xmlns="http://www.w3.org/2000/svg" xmlns:xlink="http://www.w3.org/1999/xlink" width="250.609" height="200" viewBox="0 0 250.609 200"><defs><clipPath id="a"><rect width="250.609" height="200" fill="none"/></clipPath></defs><g clip-path="url(#a)"><path d="M98.67,193.52H63.627l-7.41-15.681-5.3,11.219a7.789,7.789,0,0,1-7.043,4.462H2.54l30.544-64.689,16.988-36a6.3,6.3,0,0,1,11.387,0L78.9,129.814l25.684,54.374a6.539,6.539,0,0,1-5.913,9.332" transform="translate(0.065 2.288)" fill="#4c4190"/><path d="M98.737,196.193H63.691a2.608,2.608,0,0,1-2.358-1.494l-5.049-10.693-2.945,6.23a10.443,10.443,0,0,1-9.4,5.958H2.606a2.6,2.6,0,0,1-2.358-3.718L47.781,91.787a8.825,8.825,0,0,1,8.047-5.107h0a8.834,8.834,0,0,1,8.051,5.107l43.125,91.355a9.147,9.147,0,0,1-8.271,13.051m-33.393-5.212H98.737a3.933,3.933,0,0,0,3.555-5.615L59.167,94.01a3.616,3.616,0,0,0-3.335-2.118h0A3.616,3.616,0,0,0,52.5,94.01L6.719,190.981H43.936a5.2,5.2,0,0,0,4.687-2.969l5.3-11.218a2.607,2.607,0,0,1,4.716,0Z" transform="translate(0 2.223)" fill="#050605"/><path d="M173,153.461a10.172,10.172,0,0,1,.005,8.675l-14.786,31.4a6.611,6.611,0,0,1-11.955,0l-16.623-35.169L96.851,88.891,73.719,39.882,56.072,2.543h39.5a9.766,9.766,0,0,1,8.831,5.595L119.7,40.5l32.795,69.52Z" transform="translate(1.438 0.065)" fill="#4c4190"/><path d="M152.313,200a9.145,9.145,0,0,1-8.335-5.282l-90.2-191A2.6,2.6,0,0,1,56.137,0H95.643a12.424,12.424,0,0,1,11.187,7.089l68.6,145.325a12.748,12.748,0,0,1,0,10.9l-14.783,31.406A9.146,9.146,0,0,1,152.313,200M60.25,5.212l88.443,187.282a4.123,4.123,0,0,0,7.24,0l14.783-31.406a7.532,7.532,0,0,0,0-6.45L102.114,9.313a7.183,7.183,0,0,0-6.471-4.1Z" transform="translate(1.373 0)" fill="#050605"/><path d="M235.42,2.543a8.926,8.926,0,0,1,8.073,12.734l-25.477,54-18.04,38.188a4.454,4.454,0,0,1-8.055,0L173.388,68.215,142.394,2.543h38.087a9.546,9.546,0,0,1,8.631,5.471l6.344,13.445,8.925-18.916Z" transform="translate(3.651 0.065)" fill="#4c4190"/><path d="M196.015,112.689a7.01,7.01,0,0,1-6.39-4.048L140.1,3.718A2.6,2.6,0,0,1,142.46,0h38.084a12.21,12.21,0,0,1,10.991,6.967l3.988,8.446,6.564-13.919A2.608,2.608,0,0,1,204.445,0h31.039a11.531,11.531,0,0,1,10.43,16.452L202.4,108.645a7,7,0,0,1-6.382,4.044M146.573,5.212l47.768,101.205a1.847,1.847,0,0,0,3.339,0L241.2,14.229a6.316,6.316,0,0,0-5.714-9.016H206.1l-8.217,17.422a2.716,2.716,0,0,1-4.716,0L186.82,9.191a6.974,6.974,0,0,0-6.276-3.978Z" transform="translate(3.586 0)" fill="#050605"/></g></svg>