<svg xmlns="http://www.w3.org/2000/svg" xmlns:xlink="http://www.w3.org/1999/xlink" width="208.606" height="200" viewBox="0 0 208.606 200"><defs><clipPath id="a"><rect width="208.606" height="200" fill="none"/></clipPath></defs><g clip-path="url(#a)"><path d="M202.3,98.575a22.884,22.884,0,1,1-22.884-22.884A22.884,22.884,0,0,1,202.3,98.575" transform="translate(3.67 1.775)" fill="#f4ac2f"/><path d="M179.479,124.155A25.52,25.52,0,1,1,205,98.634a25.55,25.55,0,0,1-25.518,25.522m0-45.767a20.246,20.246,0,1,0,20.245,20.245,20.269,20.269,0,0,0-20.245-20.245" transform="translate(3.61 1.714)" fill="#050605"/><path d="M99.943,155.119a55.179,55.179,0,1,1,39.672-93.432l29.708-30.048a97.365,97.365,0,1,0-.028,136.63l-29.707-30.047a54.988,54.988,0,0,1-39.645,16.9" transform="translate(0.06 0.06)" fill="#f4ac2f"/><path d="M100,200A100,100,0,1,1,171.261,29.851a2.635,2.635,0,0,1,0,3.7L141.55,63.6a2.629,2.629,0,0,1-1.875.783h-.016a2.648,2.648,0,0,1-1.883-.807,52.541,52.541,0,1,0-.025,72.874,2.626,2.626,0,0,1,1.879-.8h.016a2.627,2.627,0,0,1,1.874.783l29.708,30.049a2.637,2.637,0,0,1,0,3.7A99.276,99.276,0,0,1,100,200M100,5.273a94.727,94.727,0,1,0,65.623,163.038l-26-26.3A57.223,57.223,0,0,1,100,157.813a57.814,57.814,0,1,1,0-115.628,57.228,57.228,0,0,1,39.652,15.828l26-26.291A93.983,93.983,0,0,0,100,5.273" fill="#050605"/></g></svg>