<svg xmlns="http://www.w3.org/2000/svg" xmlns:xlink="http://www.w3.org/1999/xlink" width="200" height="200" viewBox="0 0 200 200"><defs><clipPath id="a"><rect width="200" height="200" fill="none"/></clipPath></defs><g clip-path="url(#a)"><path d="M197.328,99.934a97.4,97.4,0,1,1-97.4-97.4,97.4,97.4,0,0,1,97.4,97.4" transform="translate(0.065 0.065)" fill="#ffc134"/><path d="M100,200A100,100,0,1,1,200,100,100.113,100.113,0,0,1,100,200M100,5.206A94.793,94.793,0,1,0,194.79,100,94.9,94.9,0,0,0,100,5.206" transform="translate(0 0)" fill="#050605"/><path d="M108.166,33.757V69.245s-.12,4.556,0,6.234,5.275,6.595,5.755,8.753a29.648,29.648,0,0,1,0,6.714l-2.6,70.254v0a7.129,7.129,0,1,0,14.257,0l-3.027-70.256a35.022,35.022,0,0,1,.229-6.714c.48-2.158,5.635-7.074,5.755-8.753s0-6.234,0-6.234V33.757" transform="translate(2.772 0.866)" fill="#346bb3"/><path d="M118.516,171a9.743,9.743,0,0,1-9.733-9.729l2.6-70.358a26.592,26.592,0,0,0,.061-6.048,22.985,22.985,0,0,0-2.522-3.523c-2.026-2.533-3.172-4.047-3.282-5.613-.13-1.749-.021-6.007-.008-6.487V33.823a2.6,2.6,0,1,1,5.206,0V69.308c-.032,1.3-.1,4.779-.008,6.048.147.212,1.359,1.729,2.16,2.734,1.973,2.469,3.194,4.083,3.539,5.645a29.684,29.684,0,0,1,.044,7.546l-2.583,70.081a4.528,4.528,0,0,0,9.054-.093L120.02,91.123a35.66,35.66,0,0,1,.285-7.391c.35-1.562,1.57-3.172,3.538-5.641a22.517,22.517,0,0,0,2.222-3.055c.032-.948-.033-4.426-.066-5.657V33.823a2.6,2.6,0,1,1,5.207,0V69.308c.012.411.118,4.67-.008,6.418-.114,1.57-1.262,3.08-3.283,5.613a22.432,22.432,0,0,0-2.537,3.56,31.324,31.324,0,0,0-.159,5.967l3.026,70.287A9.76,9.76,0,0,1,118.516,171" transform="translate(2.707 0.8)" fill="#050605"/><line y2="35.488" transform="translate(117.772 34.623)" fill="#003c91"/><path d="M114.881,71.378A2.082,2.082,0,0,1,112.8,69.3V33.81a2.083,2.083,0,0,1,4.166,0V69.3a2.082,2.082,0,0,1-2.083,2.083" transform="translate(2.892 0.814)" fill="#050605"/><line y2="35.488" transform="translate(124.366 34.623)" fill="#003c91"/><path d="M121.31,71.378a2.082,2.082,0,0,1-2.083-2.083V33.81a2.083,2.083,0,0,1,4.166,0V69.3a2.082,2.082,0,0,1-2.083,2.083" transform="translate(3.057 0.814)" fill="#050605"/><path d="M75.351,31.879c-9.645-.009-17.476,12.1-17.49,27.047-.009,9.405,3.082,16.765,7.776,20.937l0,.008c1,.99,3.432,3.516,4.581,4.714a2.489,2.489,0,0,1,.713,1.555,38.568,38.568,0,0,1-.17,5.329L68.1,161.722v.016a6.956,6.956,0,0,0,4.054,6.476,7.178,7.178,0,0,0,10.2-6.476L79.4,91.478s-.134-2.552,0-4.739a3.788,3.788,0,0,1,1.125-2.457l4.256-4.224c.018-.018.025-.035.042-.054,4.784-4.138,7.958-11.541,7.967-21.043C92.8,44.013,85,31.888,75.351,31.879" transform="translate(1.484 0.817)" fill="#346bb3"/><path d="M75.3,171.532a10.445,10.445,0,0,1-4.1-.854,9.506,9.506,0,0,1-5.646-8.876l2.669-70.365a37.342,37.342,0,0,0,.17-5.061c-1.126-1.111-3.526-3.608-4.519-4.584l-.048-.049c-5.377-4.8-8.518-13.126-8.506-22.754.008-7.721,1.976-15.017,5.548-20.542,3.8-5.874,8.957-9.108,14.534-9.108h.012c11.254.012,20.053,13.053,20.037,29.689-.008,9.665-3.182,17.988-8.713,22.873-.019.021-.041.044-.057.065l-4.258,4.227a1.166,1.166,0,0,0-.366.781c-.126,2.026,0,4.4,0,4.438L85.017,161.7a9.761,9.761,0,0,1-4.36,8.221,9.644,9.644,0,0,1-5.353,1.615M67.612,78.164c1.066,1.053,3.425,3.507,4.556,4.69A5.078,5.078,0,0,1,73.6,86.043a40.965,40.965,0,0,1-.175,5.76l-2.655,70.084a4.338,4.338,0,0,0,2.469,4,4.64,4.64,0,0,0,4.548-.313,4.507,4.507,0,0,0,2.034-3.771L76.861,91.656a50.077,50.077,0,0,1,0-5.011A6.419,6.419,0,0,1,78.754,82.5l4.157-4.129c.044-.048.094-.1.134-.147,4.621-4,7.195-10.954,7.2-19.2.016-13.256-6.781-24.463-14.838-24.474h0c-3.751,0-7.359,2.387-10.161,6.727C62.21,45.965,60.534,52.261,60.53,59c-.012,8.159,2.506,15.078,6.9,18.988.065.056.125.118.183.178" transform="translate(1.419 0.752)" fill="#050605"/></g></svg>