<svg xmlns="http://www.w3.org/2000/svg" xmlns:xlink="http://www.w3.org/1999/xlink" width="200.224" height="200" viewBox="0 0 200.224 200"><defs><clipPath id="a"><rect width="200.224" height="200" fill="none"/></clipPath></defs><rect width="54.276" height="54.276" transform="translate(143.411 2.54)" fill="#c9d461"/><g clip-path="url(#a)"><path d="M194.027,60.924H138.318a2.607,2.607,0,0,1-2.605-2.605V2.606A2.608,2.608,0,0,1,138.318,0h55.709a2.608,2.608,0,0,1,2.606,2.606V58.319a2.608,2.608,0,0,1-2.606,2.605m-53.1-5.211h50.5V5.211h-50.5Z" transform="translate(3.591)" fill="#1a1718"/><rect width="55.712" height="55.712" transform="translate(141.908 72.145)" fill="#c9d461"/><path d="M194.027,128.668H138.318a2.608,2.608,0,0,1-2.605-2.606V70.353a2.608,2.608,0,0,1,2.605-2.606h55.709a2.608,2.608,0,0,1,2.606,2.606v55.709a2.608,2.608,0,0,1-2.606,2.606m-53.1-5.211h50.5v-50.5h-50.5Z" transform="translate(3.591 1.792)" fill="#1a1718"/><path d="M0,0H55.712V55.712H0Z" transform="translate(141.908 141.681)" fill="#c9d461"/><path d="M194.027,196.415H138.318a2.608,2.608,0,0,1-2.605-2.606V138.1a2.607,2.607,0,0,1,2.605-2.605h55.709a2.608,2.608,0,0,1,2.606,2.605v55.713a2.608,2.608,0,0,1-2.606,2.606m-53.1-5.211h50.5V140.7h-50.5Z" transform="translate(3.591 3.585)" fill="#1a1718"/><rect width="55.712" height="55.712" transform="translate(72.256 72.145)" fill="#3d723a"/><path d="M126.173,128.668H70.46a2.609,2.609,0,0,1-2.606-2.606V70.353a2.609,2.609,0,0,1,2.606-2.606h55.713a2.609,2.609,0,0,1,2.606,2.606v55.709a2.609,2.609,0,0,1-2.606,2.606m-53.108-5.211h50.5v-50.5h-50.5Z" transform="translate(1.795 1.792)" fill="#1a1718"/><rect width="55.712" height="55.712" transform="translate(72.256 141.681)" fill="#3d723a"/><path d="M126.173,196.415H70.46a2.608,2.608,0,0,1-2.606-2.606V138.1a2.608,2.608,0,0,1,2.606-2.605h55.713a2.608,2.608,0,0,1,2.606,2.605v55.713a2.608,2.608,0,0,1-2.606,2.606M73.065,191.2h50.5V140.7h-50.5Z" transform="translate(1.795 3.585)" fill="#1a1718"/><rect width="55.712" height="55.712" transform="translate(2.604 141.681)" fill="#c9d461"/><path d="M58.315,196.415H2.606A2.608,2.608,0,0,1,0,193.809V138.1a2.608,2.608,0,0,1,2.606-2.605H58.315A2.607,2.607,0,0,1,60.92,138.1v55.713a2.608,2.608,0,0,1-2.605,2.606M5.211,191.2h50.5V140.7H5.211Z" transform="translate(0 3.585)" fill="#1a1718"/></g></svg>