<svg xmlns="http://www.w3.org/2000/svg" xmlns:xlink="http://www.w3.org/1999/xlink" width="200" height="124.262" viewBox="0 0 200 124.262"><defs><clipPath id="a"><rect width="200" height="124.262" fill="none"/></clipPath></defs><g transform="translate(0 0)"><g transform="translate(0 0)" clip-path="url(#a)"><path d="M65.247,68.077V14.594A12.066,12.066,0,0,1,77.314,2.528H183.761a12.066,12.066,0,0,1,12.066,12.066V79.171a12.067,12.067,0,0,1-12.066,12.067H94.575" transform="translate(1.584 0.061)" fill="#f6c353"/><path d="M2.527,114.432c9.968-.083,26.914-.371,39.8-1.362,18.155-1.4,37.558-12.032,37.558-12.032L123,72.526A13.884,13.884,0,0,0,107.68,49.364L58.039,71.87l8.728-3.958V9.31c-3.538.1-8.032.517-11.171,1.809-4.773,1.966-39.349,28.091-52.71,38.247Z" transform="translate(0.061 0.226)" fill="#cfcfcf"/><path d="M118.961,89.135v19.029a11.347,11.347,0,1,1-22.695,0V89.135" transform="translate(2.336 2.163)" fill="#cfcfcf"/><path d="M70.665,102.8a13.52,13.52,0,0,0,26.223,2.736V86.818L83.777,95.489l-5.543,3.666Z" transform="translate(1.715 2.107)" fill="#cfcfcf"/><path d="M140.7,89.137a29.006,29.006,0,0,1-1.678,9.425c-.59,1.65-4.977,13.9-12.624,13.967-.967.009-4.255-.157-7.975-4.364V89.135Z" transform="translate(2.874 2.163)" fill="#cfcfcf"/><path d="M185.343,0H78.9a14.619,14.619,0,0,0-12.419,6.96c-5.024.169-9,.836-11.809,1.987C50.094,10.834,23.163,30.97,1.38,47.529a2.591,2.591,0,0,0,3.132,4.128C33.64,29.513,53.614,14.986,56.645,13.74a26.9,26.9,0,0,1,7.838-1.478,14.615,14.615,0,0,0-.242,2.393V66.47l-7.207,3.267a2.59,2.59,0,1,0,2.137,4.719l8.646-3.926c.015-.007.031-.015.047-.022l41.3-18.758a11.3,11.3,0,0,1,12.464,18.841l-20.44,13.521v-.005L94.562,88.5,78.739,98.968l-7.287,3.51c-7.139,3.149-18.5,7.409-29.261,8.236-13.027,1-30.415,1.279-39.621,1.352a2.59,2.59,0,0,0,.019,5.18h.02c9.275-.077,26.8-.352,39.977-1.368,10.169-.78,20.558-4.295,28.036-7.4a16.22,16.22,0,0,0,14.2,10.894c.32.02.639.029.955.029a16.139,16.139,0,0,0,11.072-4.477,13.859,13.859,0,0,0,26.1.276,11.523,11.523,0,0,0,6.265,2.08h.073c8.527-.077,13.354-10.986,15.042-15.681a31.342,31.342,0,0,0,1.585-7.713h39.42A14.675,14.675,0,0,0,200,79.231V14.654A14.671,14.671,0,0,0,185.343,0M85.142,114.2a11.049,11.049,0,0,1-9.779-7.794c3.467-1.6,5.7-2.809,6.016-2.987l14.5-9.591a1.066,1.066,0,0,1,.129.027v13.316a11.052,11.052,0,0,1-10.87,7.03m24.807,4.88a8.768,8.768,0,0,1-8.758-8.756V93.889h17.514v16.437a8.768,8.768,0,0,1-8.756,8.756m30.876-25.19a25.829,25.829,0,0,1-1.367,5.964c-2.112,5.9-5.9,12.205-10.206,12.245h-.029c-.826,0-2.857-.3-5.337-2.8V93.889Zm54-14.661a9.49,9.49,0,0,1-9.478,9.478H103.628l20.86-13.8a16.5,16.5,0,0,0,4.653-22.831c-5.014-7.576-15.255-9.676-22.471-4.852L69.421,64.12V35.408h125.4Zm0-59.418H69.421V14.654A9.486,9.486,0,0,1,78.9,5.181H185.343a9.486,9.486,0,0,1,9.478,9.473Z" transform="translate(0 0)" fill="#050605"/></g></g></svg>