<svg id="google-icon-full-color" xmlns="http://www.w3.org/2000/svg" xmlns:xlink="http://www.w3.org/1999/xlink" width="200" height="200" viewBox="0 0 200 200">
  <defs>
    <clipPath id="clip-path">
      <rect id="Rectangle_1" data-name="Rectangle 1" width="200" height="200" fill="none"/>
    </clipPath>
  </defs>
  <g id="Group_1" data-name="Group 1" clip-path="url(#clip-path)">
    <path id="Path_58" data-name="Path 58" d="M40.74,98.737A58.809,58.809,0,0,1,44.98,76.859L13.886,53.135a97.393,97.393,0,0,0-1.138,88.979l31.675-23.02A58.773,58.773,0,0,1,40.74,98.737" transform="translate(0.061 1.265)" fill="#fdab00"/>
    <path id="Path_59" data-name="Path 59" d="M99.675,40.739a58.905,58.905,0,0,1,39.8,15.465L166.286,29.03A97.246,97.246,0,0,0,13.622,54.339L44.717,78.062A59.256,59.256,0,0,1,99.675,40.739" transform="translate(0.324 0.061)" fill="#e12a26"/>
    <path id="Path_60" data-name="Path 60" d="M193.03,117.676a97.465,97.465,0,0,0,.426-36.818H100.184v36.818h53.228a59.563,59.563,0,0,1-21.884,28.836L162.147,170.9a97.212,97.212,0,0,0,30.883-53.229" transform="translate(2.385 1.925)" fill="#346bb3"/>
    <path id="Path_61" data-name="Path 61" d="M99.7,156.4a59.244,59.244,0,0,1-55.516-38.842l-31.674,23.02a97.262,97.262,0,0,0,151.723,29.452l-30.62-24.392A58.682,58.682,0,0,1,99.7,156.4" transform="translate(0.298 2.798)" fill="#3d993d"/>
    <path id="Path_62" data-name="Path 62" d="M198.412,82.326a2.612,2.612,0,0,0-2.573-2.156H102.571a2.616,2.616,0,0,0-2.614,2.614V119.6a2.616,2.616,0,0,0,2.614,2.614h49.4a56.623,56.623,0,0,1-19.57,24.09A56,56,0,0,1,100,156.585a56.8,56.8,0,0,1-53.06-37.131A55.75,55.75,0,0,1,47.46,79.1l.005-.009a56.446,56.446,0,0,1,90.574-20.9,2.612,2.612,0,0,0,3.622-.1l26.809-27.173a2.612,2.612,0,0,0-.07-3.736A99.934,99.934,0,0,0,0,100a99.91,99.91,0,0,0,166.266,74.782,99.154,99.154,0,0,0,31.709-54.66,100.123,100.123,0,0,0,.437-37.8M100,5.226a94.24,94.24,0,0,1,62.842,23.963L139.669,52.675a61.663,61.663,0,0,0-95.7,21.338L17.316,53.679A94.645,94.645,0,0,1,100,5.226M14.853,58.376,41.9,79.015a60.858,60.858,0,0,0-.53,40.369l-17.4,12.649-10.163,7.386A93.758,93.758,0,0,1,5.227,100a94.988,94.988,0,0,1,9.627-41.625m1.3,85.8L43.3,124.443A62.056,62.056,0,0,0,100,161.811a61.157,61.157,0,0,0,33.792-10.126l2.17,1.729L160.428,172.9A94.639,94.639,0,0,1,16.153,144.176m176.7-25.1A93.81,93.81,0,0,1,164.421,169.4L138.191,148.5a61.664,61.664,0,0,0,20.073-28.034,2.616,2.616,0,0,0-2.466-3.483H105.184V85.4h88.443a94.826,94.826,0,0,1-.772,33.681" transform="translate(0 0)" fill="#050605"/>
  </g>
</svg>
