<svg xmlns="http://www.w3.org/2000/svg" xmlns:xlink="http://www.w3.org/1999/xlink" width="201.313" height="200" viewBox="0 0 201.313 200"><defs><clipPath id="a"><rect width="201.313" height="200" fill="none"/></clipPath></defs><g clip-path="url(#a)"><path d="M199.857,150.888c-.379-.505-9.175-11.531-21.338-11.531-8.712,0-28.956,8.417-38.972,12.836a14.489,14.489,0,0,0,.21-1.895,12.914,12.914,0,0,0-12.921-12.879h-26.43l-11.573-6.986a46.259,46.259,0,0,0-25.715-6.692H35.931a2.622,2.622,0,0,0-2.61,2.609V172.52a2.559,2.559,0,0,0,1.389,2.272c.295.168,1.683.884,3.83,1.979,10.9,5.345,42.759,19.906,66.327,19.906,19.023,0,91.159-40.192,94.189-41.875a2.619,2.619,0,0,0,1.305-1.81,2.547,2.547,0,0,0-.505-2.1" transform="translate(0.894 3.318)" fill="#cfcfcf"/><path d="M159.486,62.556A59.995,59.995,0,1,1,99.492,2.561a60,60,0,0,1,59.995,59.995" transform="translate(1.06 0.069)" fill="#ffc134"/><path d="M99.559,125.249a62.624,62.624,0,1,1,62.625-62.624,62.694,62.694,0,0,1-62.625,62.624m0-119.987a57.363,57.363,0,1,0,57.365,57.363A57.427,57.427,0,0,0,99.559,5.261" transform="translate(0.991 0)" fill="#050605"/><rect width="34.196" height="59.973" transform="translate(2.63 123.719)" fill="#9e9e9e"/><path d="M200.753,151.022c-.37-.468-9.172-11.528-21.36-11.528-8.663,0-28.884,8.422-38.909,12.846a12.792,12.792,0,0,0-12.735-14.773h-26.46l-11.545-6.988a46.734,46.734,0,0,0-25.739-6.691H39.456v-5.964H0v65.234H39.456v-6.248c10.958,5.375,42.787,19.927,66.286,19.927,19.054,0,91.161-40.183,94.223-41.893a2.635,2.635,0,0,0,.788-3.921M34.2,177.9H5.261V123.185H34.2Zm71.547,13.678c-24.063,0-58.9-16.841-66.286-20.551V129.148l24.769-.007a42.018,42.018,0,0,1,22.794,5.942l12.17,7.365c.035.021.075.028.111.047a2.6,2.6,0,0,0,.453.194c.058.017.112.038.168.052a2.591,2.591,0,0,0,.622.083h27.206a7.628,7.628,0,0,1,0,15.257H81.1a2.63,2.63,0,1,0,0,5.26h46.646a12.831,12.831,0,0,0,8.784-3.483,2.708,2.708,0,0,0,.372-.129c8.908-4.168,33.9-14.977,42.488-14.977,6.565,0,12.166,4.4,15.078,7.222-22.5,12.416-74.693,39.6-88.728,39.6" transform="translate(0 3.164)" fill="#050605"/><path d="M100.73,59.546V37.493a11.081,11.081,0,0,1,8.683,10.8,2.63,2.63,0,0,0,5.26,0A16.336,16.336,0,0,0,100.73,32.162V26.539a2.63,2.63,0,1,0-5.26,0v5.7a16.306,16.306,0,0,0,0,32.1v22a11.069,11.069,0,0,1-8.181-10.666,2.631,2.631,0,0,0-5.261,0,16.337,16.337,0,0,0,13.442,16.05v5.7a2.63,2.63,0,1,0,5.26,0V91.805a16.3,16.3,0,0,0,0-32.259M87.288,48.293a11.076,11.076,0,0,1,8.181-10.671V58.959a11.07,11.07,0,0,1-8.181-10.666m13.441,38.18V64.879a11.055,11.055,0,0,1,0,21.594" transform="translate(2.201 0.641)" fill="#050605"/></g></svg>