<svg xmlns="http://www.w3.org/2000/svg" xmlns:xlink="http://www.w3.org/1999/xlink" width="151.572" height="200" viewBox="0 0 151.572 200"><defs><clipPath id="a"><rect width="151.572" height="200" fill="none"/></clipPath></defs><path d="M149.029,2.545l-6.35,35.841-6.727,37.888-21.56,121.183H77.456L92.54,112.533,46.788,150.755l-8.272,46.7H2.542l3.217-18.213,5.557-31.12L37.136,2.545H73.111L53.557,112.867,99.267,74.645l12.786-72.1Z" transform="translate(0 0)" fill="#d4d736"/><g clip-path="url(#a)"><path d="M114.358,200h-36.9a2.608,2.608,0,0,1-2.568-3.066l13.821-77.819-39.491,33-8.1,45.735A2.611,2.611,0,0,1,38.549,200H2.608A2.612,2.612,0,0,1,.04,196.938L34.6,2.152A2.61,2.61,0,0,1,37.17,0H73.114a2.611,2.611,0,0,1,2.568,3.066L57.4,106.262,96.844,73.273,109.453,2.152A2.61,2.61,0,0,1,112.022,0h36.943a2.611,2.611,0,0,1,2.568,3.066L116.926,197.847A2.607,2.607,0,0,1,114.358,200M80.57,194.782h31.6L145.853,5.217H114.21l-12.4,69.9a2.613,2.613,0,0,1-.892,1.545L55.254,114.859A2.609,2.609,0,0,1,51.01,112.4L70,5.217H39.356L5.719,194.782h30.64l7.888-44.517a2.6,2.6,0,0,1,.9-1.545l45.711-38.2a2.607,2.607,0,0,1,4.24,2.458Z" transform="translate(0)" fill="#050605"/></g></svg>