<svg xmlns="http://www.w3.org/2000/svg" xmlns:xlink="http://www.w3.org/1999/xlink" width="199.377" height="200" viewBox="0 0 199.377 200"><defs><clipPath id="a"><rect width="199.377" height="200" fill="none"/></clipPath></defs><g clip-path="url(#a)"><path d="M118.945,23.83A21.309,21.309,0,1,1,97.636,2.52a21.31,21.31,0,0,1,21.31,21.31" transform="translate(1.957 0.065)" fill="#cfcfcf"/><path d="M97.7,47.791a23.9,23.9,0,1,1,23.9-23.9,23.925,23.925,0,0,1-23.9,23.9m0-42.616A18.721,18.721,0,1,0,116.425,23.9,18.74,18.74,0,0,0,97.7,5.174" transform="translate(1.892)" fill="#1a1718"/><path d="M131.769,126.271c0-8.406-9.124-55.664-10.136-60.881-.061-.313-.13-.618-.21-.926-1.487-5.711-3.157-11.486-11.826-11.486H86.3c-8.9,0-10.422,4.566-11.944,11.945,0,0-10.228,51.984-10.228,61.349,0,3.816,2.591,6.506,6.107,8.352a15.355,15.355,0,0,1,8.088,10.4l8.855,42.96s.876,8.071,8.07,8.071h5.4c7.194,0,8.07-8.071,8.07-8.071l8.9-43.182a15.285,15.285,0,0,1,7.987-10.35c3.544-1.874,6.163-4.536,6.163-8.183" transform="translate(1.644 1.358)" fill="#cfcfcf"/><path d="M100.713,198.706h-5.4c-7.523,0-10.251-6.787-10.639-10.376l-8.817-42.718a12.786,12.786,0,0,0-6.755-8.631c-6.193-3.254-7.494-7.584-7.494-10.644,0-9.508,9.855-59.716,10.276-61.85,1.645-7.96,3.751-14.032,14.484-14.032h23.3c10.83,0,12.935,8.077,14.326,13.422.1.367.178.723.247,1.091,1.7,8.768,10.183,52.961,10.183,61.369,0,2.955-1.306,7.167-7.535,10.471a12.7,12.7,0,0,0-6.666,8.582l-8.9,43.183c-.352,3.348-3.077,10.134-10.6,10.134M86.366,55.629c-6.767,0-7.9,2.563-9.411,9.88C73.438,83.381,66.78,119.13,66.78,126.337c0,.885,0,3.582,4.725,6.06a17.957,17.957,0,0,1,9.419,12.168l8.853,42.964c.1.82.865,6,5.533,6h5.4c4.674,0,5.43-5.183,5.5-5.772l8.937-43.413a17.854,17.854,0,0,1,9.314-12.115c3.173-1.682,4.783-3.663,4.783-5.894,0-6.153-5.433-36.378-10.086-60.387-.052-.268-.109-.518-.173-.772-1.545-5.919-2.822-9.549-9.322-9.549Z" transform="translate(1.58 1.294)" fill="#1a1718"/><path d="M39.682,41.32A14.445,14.445,0,1,1,25.237,26.875,14.445,14.445,0,0,1,39.682,41.32" transform="translate(0.277 0.689)" fill="#cfcfcf"/><path d="M25.3,58.417A17.031,17.031,0,1,1,42.336,41.385,17.051,17.051,0,0,1,25.3,58.417m0-28.888A11.857,11.857,0,1,0,37.161,41.385,11.871,11.871,0,0,0,25.3,29.528" transform="translate(0.212 0.624)" fill="#1a1718"/><path d="M48.375,111.747c0-5.7-6.185-37.733-6.872-41.269-.041-.212-.087-.419-.142-.629-1.008-3.871-2.141-7.786-8.016-7.786H17.554c-6.033,0-7.065,3.1-8.1,8.1,0,0-6.933,35.238-6.933,41.586,0,2.588,1.757,4.409,4.139,5.662a10.4,10.4,0,0,1,5.483,7.051l6,29.12s.594,5.472,5.47,5.472H27.28c4.877,0,5.471-5.472,5.471-5.472l6.033-29.271a10.364,10.364,0,0,1,5.414-7.015c2.4-1.27,4.177-3.075,4.177-5.547" transform="translate(0.065 1.591)" fill="#cfcfcf"/><path d="M27.344,161.7H23.685c-5.7,0-7.75-5.09-8.04-7.778l-5.967-28.88a7.828,7.828,0,0,0-4.152-5.279C.958,117.361,0,114.114,0,111.81c0-6.524,6.7-40.636,6.982-42.087C7.875,65.414,9.088,59.54,17.617,59.54H33.411c7.981,0,9.569,6.084,10.519,9.718.073.287.133.542.182.805,1.153,5.934,6.917,35.9,6.917,41.747,0,2.232-.966,5.405-5.558,7.835a7.786,7.786,0,0,0-4.087,5.251l-6.036,29.272c-.254,2.449-2.312,7.535-8,7.535M17.617,64.714c-3.942,0-4.535,1.068-5.562,6.036-1.913,9.706-6.881,36.058-6.881,41.059,0,.477,0,1.924,2.757,3.375A12.99,12.99,0,0,1,14.748,124l6,29.123c.1.752.558,3.4,2.934,3.4h3.658c2.377,0,2.834-2.652,2.9-3.182l6.072-29.494a12.952,12.952,0,0,1,6.739-8.785c1.859-.983,2.8-2.078,2.8-3.258,0-4.467-4.463-28.622-6.824-40.773l-.113-.5c-1.1-4.221-1.864-5.826-5.507-5.826Z" transform="translate(0 1.527)" fill="#1a1718"/><path d="M184.323,41.32a14.445,14.445,0,1,1-14.445-14.445A14.445,14.445,0,0,1,184.323,41.32" transform="translate(3.985 0.689)" fill="#cfcfcf"/><path d="M169.944,58.417a17.031,17.031,0,1,1,17.031-17.032,17.052,17.052,0,0,1-17.031,17.032m0-28.888A11.857,11.857,0,1,0,181.8,41.385a11.872,11.872,0,0,0-11.856-11.856" transform="translate(3.921 0.624)" fill="#1a1718"/><path d="M193.016,111.747c0-5.7-6.186-37.733-6.871-41.269-.042-.212-.088-.419-.144-.629-1.008-3.871-2.139-7.786-8.016-7.786H162.194c-6.032,0-7.065,3.1-8.1,8.1,0,0-6.932,35.238-6.932,41.586,0,2.588,1.757,4.409,4.139,5.662a10.4,10.4,0,0,1,5.482,7.051l6,29.12s.594,5.472,5.469,5.472h3.661c4.878,0,5.471-5.472,5.471-5.472l6.034-29.271a10.363,10.363,0,0,1,5.413-7.015c2.4-1.27,4.178-3.075,4.178-5.547" transform="translate(3.773 1.591)" fill="#cfcfcf"/><path d="M171.984,161.7h-3.658c-5.691,0-7.75-5.086-8.04-7.778l-5.967-28.88a7.828,7.828,0,0,0-4.152-5.279c-4.564-2.4-5.522-5.651-5.522-7.956,0-6.524,6.7-40.636,6.982-42.087.889-4.309,2.1-10.183,10.632-10.183h15.794c7.981,0,9.569,6.084,10.519,9.718.073.287.133.542.182.805,1.153,5.934,6.917,35.9,6.917,41.747,0,2.236-.966,5.409-5.558,7.835a7.786,7.786,0,0,0-4.087,5.251l-6.032,29.272c-.254,2.449-2.312,7.535-8.008,7.535m-9.726-96.989c-3.946,0-4.535,1.068-5.559,6.032-1.912,9.71-6.88,36.063-6.88,41.064,0,.477,0,1.924,2.757,3.371A13.009,13.009,0,0,1,159.388,124l6,29.123c.1.752.558,3.4,2.934,3.4h3.658c2.382,0,2.838-2.652,2.9-3.182l6.068-29.494a12.952,12.952,0,0,1,6.739-8.785c1.859-.983,2.8-2.078,2.8-3.258,0-4.467-4.463-28.622-6.824-40.773l-.113-.5c-1.1-4.221-1.864-5.826-5.507-5.826Z" transform="translate(3.709 1.527)" fill="#1a1718"/></g></svg>