<svg xmlns="http://www.w3.org/2000/svg" xmlns:xlink="http://www.w3.org/1999/xlink" width="199.989" height="200" viewBox="0 0 199.989 200"><defs><clipPath id="a"><rect width="199.989" height="200" fill="none"/></clipPath></defs><g clip-path="url(#a)"><path d="M56.5,80.894,19.408,43.8a97.8,97.8,0,0,0-.086,109.947l37.116-37.117A47.143,47.143,0,0,1,56.5,80.894" transform="translate(0.065 1.156)" fill="#f4fbfe"/><path d="M116.634,56.426,153.75,19.31a97.8,97.8,0,0,0-109.633-.133L81.271,56.331a47.145,47.145,0,0,1,35.364.094" transform="translate(1.165 0.064)" fill="#f4fbfe"/><path d="M139.9,116.391l37.155,37.155a97.8,97.8,0,0,0-.083-109.56L139.845,81.113a47.151,47.151,0,0,1,.055,35.278" transform="translate(3.692 1.161)" fill="#f4fbfe"/><path d="M81.126,139.836,44,176.964a97.8,97.8,0,0,0,109.874-.137l-37.1-37.1a47.146,47.146,0,0,1-35.65.1" transform="translate(1.161 3.689)" fill="#f4fbfe"/><path d="M130.2,130.192A46.819,46.819,0,0,1,114.9,140.4l37.1,37.1,6.986,6.986,25.761-25.761-7.033-7.034-37.155-37.154A46.811,46.811,0,0,1,130.2,130.192" transform="translate(3.033 3.023)" fill="#e25c5c"/><path d="M12.226,37.716l6.923,6.923,37.1,37.1A47.037,47.037,0,0,1,82.112,56.079L44.958,18.925l-6.97-6.971Z" transform="translate(0.323 0.316)" fill="#e25c5c"/><path d="M151.884,19.06,114.768,56.175A47.1,47.1,0,0,1,140.507,81.96l37.127-37.127,7.116-7.116L158.988,11.955Z" transform="translate(3.03 0.316)" fill="#e25c5c"/><path d="M66.449,130.187a46.844,46.844,0,0,1-10.269-15.43L19.064,151.873l-6.838,6.838,25.761,25.762,6.849-6.849,37.128-37.128a46.825,46.825,0,0,1-15.515-10.308" transform="translate(0.323 3.029)" fill="#e25c5c"/><path d="M184.089,154.353a100.9,100.9,0,0,0-.08-108.857l5.617-5.616a2.622,2.622,0,0,0,0-3.7L163.868,10.421a2.692,2.692,0,0,0-3.7,0l-5.605,5.606A100.9,100.9,0,0,0,45.634,15.9l-5.477-5.477a2.614,2.614,0,0,0-3.7,0L10.7,36.184a2.614,2.614,0,0,0,0,3.7L16.125,45.3a100.812,100.812,0,0,0-.085,109.251L10.7,159.89a2.614,2.614,0,0,0,0,3.7l25.762,25.762a2.618,2.618,0,0,0,3.7,0L45.51,184a100.749,100.749,0,0,0,109.178-.134l5.488,5.486a2.613,2.613,0,0,0,3.692,0l25.758-25.762a2.622,2.622,0,0,0,0-3.7Zm-3.771-3.771-33.68-33.68a50.205,50.205,0,0,0-.053-33.98l33.657-33.657a95.676,95.676,0,0,1,.077,101.317M116.81,58.906h0a44.53,44.53,0,0,1,24.305,24.35,44.813,44.813,0,0,1,.053,33.322,44.042,44.042,0,0,1-9.787,14.788l0,0a44.007,44.007,0,0,1-14.437,9.636,44.775,44.775,0,0,1-33.672.1h0a43.982,43.982,0,0,1-14.649-9.737h0a44.048,44.048,0,0,1-9.7-14.569,44.764,44.764,0,0,1,.066-33.753A44.415,44.415,0,0,1,83.408,58.821a44.836,44.836,0,0,1,33.4.085m45.21-42.946,22.067,22.071-5.254,5.253c-.005.005-.012.008-.017.013l-34.459,34.46a49.755,49.755,0,0,0-22.047-22.081l34.453-34.453c.006-.006.009-.014.015-.021ZM150.8,19.794,117.15,53.443a50.15,50.15,0,0,0-34.065-.089L49.4,19.668a95.687,95.687,0,0,1,101.4.126M38.308,15.961l5.11,5.11a.226.226,0,0,0,.014.018L77.906,55.566a49.725,49.725,0,0,0-22.144,21.98L21.321,43.107c-.011-.012-.027-.021-.039-.032l-5.044-5.044Zm-18.42,33.1L53.513,82.69a50.089,50.089,0,0,0-.059,34.448L19.806,150.786a95.624,95.624,0,0,1,.082-101.721M43.31,178.8c-.005.005-.008.012-.013.017l-4.988,4.988-22.07-22.07,4.956-4.956c.013-.012.029-.021.041-.033L55.689,122.3A49.81,49.81,0,0,0,77.77,144.344Zm5.967,1.426,33.657-33.657a50.155,50.155,0,0,0,34.36-.1l20.839,20.835L150.924,180.1a95.641,95.641,0,0,1-101.646.128m112.743,3.58-5.138-5.138,0,0-34.441-34.441a49.716,49.716,0,0,0,21.984-22.148L178.9,156.554c.006.006.015.011.022.017l5.168,5.168Z" transform="translate(0 0)" fill="#050605"/></g></svg>