<svg xmlns="http://www.w3.org/2000/svg" xmlns:xlink="http://www.w3.org/1999/xlink" width="200" height="203.816" viewBox="0 0 200 203.816"><defs><clipPath id="a"><rect width="200" height="203.816" fill="none"/></clipPath></defs><g clip-path="url(#a)"><path d="M81.667,102.156A14.769,14.769,0,1,1,66.9,87.387a14.769,14.769,0,0,1,14.769,14.769" transform="translate(1.337 2.241)" fill="#5cb5e7"/><path d="M158.594,112.421h0a20.813,20.813,0,0,0-20.751-20.752H96.591v28.348H157.1a20.5,20.5,0,0,0,1.493-7.6" transform="translate(2.477 2.35)" fill="#5cb5e7"/><path d="M81.667,166.234A14.769,14.769,0,1,1,66.9,151.465a14.769,14.769,0,0,1,14.769,14.769" transform="translate(1.337 3.884)" fill="#5cb5e7"/><path d="M158.85,175.36h0A20.813,20.813,0,0,0,138.1,154.608H96.847v28.348h60.51a20.494,20.494,0,0,0,1.493-7.6" transform="translate(2.483 3.964)" fill="#5cb5e7"/><path d="M122.184,11.42,98.605,2.586,75.027,11.42,2.589,38.56V56.229L98.605,20.254l98.671,36.968V39.555Z" transform="translate(0.066 0.066)" fill="#ffc134"/><path d="M160.638,80.9a2.659,2.659,0,0,0-2.656,2.656V98.418a23.377,23.377,0,0,0-18.531-9.131H98.2a2.659,2.659,0,0,0-2.655,2.656v26.13H74.766a17.423,17.423,0,1,0-14.8,0H39.21V83.555a2.656,2.656,0,0,0-5.313,0v115.53a2.656,2.656,0,1,0,5.313,0V188.9H157.981v10.189a2.656,2.656,0,1,0,5.312,0V83.555a2.659,2.659,0,0,0-2.655-2.656M55.254,102.323a12.113,12.113,0,1,1,12.111,12.111,12.124,12.124,0,0,1-12.111-12.111m45.865,79.868V159.152h38.593a18.117,18.117,0,0,1,18.1,18.1,17.46,17.46,0,0,1-.726,4.939ZM100.853,94.6h38.6a18.117,18.117,0,0,1,18.1,18.1,17.517,17.517,0,0,1-.726,4.938H100.853ZM39.21,123.385H157.981v39.253a23.371,23.371,0,0,0-18.27-8.8H98.462a2.66,2.66,0,0,0-2.656,2.656v27.089H75.2a17.423,17.423,0,1,0-15.675,0H39.21Zm28.155,56.771A12.112,12.112,0,1,1,79.48,168.042a12.125,12.125,0,0,1-12.115,12.115" transform="translate(0.869 2.074)" fill="#050605"/><path d="M198.278,37.134,123.184,9,99.606.168a2.673,2.673,0,0,0-1.868,0L1.722,36.143A2.655,2.655,0,0,0,0,38.629V201.16a2.656,2.656,0,1,0,5.313,0V58.136L98.672,23.157l96.015,35.971V201.16a2.656,2.656,0,1,0,5.313,0V39.621a2.655,2.655,0,0,0-1.722-2.486M98.672,17.666a2.7,2.7,0,0,0-.933.17L5.313,52.466V40.471L98.672,5.488l96.015,35.974V53.457L99.606,17.836a2.7,2.7,0,0,0-.934-.17" transform="translate(0 0)" fill="#050605"/></g></svg>