<svg xmlns="http://www.w3.org/2000/svg" xmlns:xlink="http://www.w3.org/1999/xlink" width="199.625" height="200" viewBox="0 0 199.625 200"><defs><clipPath id="a"><rect width="199.625" height="200" fill="none"/></clipPath></defs><g clip-path="url(#a)"><path d="M119.959,93.988s-9.583,3.724-14.187,5.984c-25.653,12.387-45.961,30.19-30.267,66.848C51.485,135.685,63.338,111.229,90.54,91.6c1.3-.963,2.594-1.926,3.934-2.846L40.4,34.856H62.626Z" transform="translate(2.065 1.781)" fill="#d26460"/><path d="M75.632,169.563a2.619,2.619,0,0,1-2.072-1.017C63.032,154.9,58.623,141.593,60.454,128.994c2.011-13.85,11.659-27.1,28.68-39.384.474-.352.948-.7,1.426-1.055L38.683,36.837A2.617,2.617,0,0,1,40.53,32.37H62.755a2.607,2.607,0,0,1,1.875.794l57.334,59.131a2.619,2.619,0,0,1-.928,4.262c-.094.037-9.535,3.707-13.985,5.894C84.017,113.57,62.575,129.8,78.035,165.918a2.613,2.613,0,0,1-2.4,3.645M46.857,37.6,96.446,87.035a2.618,2.618,0,0,1-.364,4c-1.312.9-2.583,1.844-3.854,2.788-15.86,11.448-24.8,23.524-26.6,35.918a37.211,37.211,0,0,0,2.08,18.047c-2.583-26.747,17.667-40.688,37.055-50.046,2.853-1.4,7.487-3.315,10.723-4.619L61.647,37.6Z" transform="translate(1.938 1.654)" fill="#1a1718"/><path d="M196.686,108.909c-7.061,109.46-161.11,120.1-191.122,15.944A96.705,96.705,0,0,1,18.37,47.81a95.246,95.246,0,0,1,8.788-11.3L82.775,89.826s-49.344,21.941-22.033,76.562c-39.111-45.754-2.066-78.475-2.063-78.479L31.426,60.783A76.663,76.663,0,0,0,15.691,107.4C16.4,178.98,108.628,208.162,154.628,157.5c68.9-75.886-15.468-184.928-100.6-142.578C85.913-4.417,128.557-.651,157.767,22.241c24.356,18.455,37.538,46.409,38.961,74.992a98.785,98.785,0,0,1-.042,11.676" transform="translate(0.129 0.126)" fill="#9e9e9e"/><path d="M102.413,200c-39.331,0-84.208-22.151-99.235-74.3a98.092,98.092,0,0,1,22.17-90.821,2.612,2.612,0,0,1,1.844-.858,2.515,2.515,0,0,1,1.9.727L84.684,88.034a2.871,2.871,0,0,1,.368.426,2.616,2.616,0,0,1-.282,3.323c-.576.584-1.03.964-1.574.935-3.658,1.864-19.286,10.675-25.412,27.831-4.7,13.139-2.868,28.206,5.423,44.795a2.613,2.613,0,0,1-4.323,2.868c-34.771-40.671-11.075-72.144-3.76-80.153L31.876,64.919A73.737,73.737,0,0,0,18.438,107.5c.3,30.455,18.737,56.316,48.117,67.5,31.087,11.84,64.959,4.324,86.263-19.139,37.149-40.916,26.744-86.618,6.543-113.322C138.323,14.722,97.987-3.848,55.318,17.386A2.615,2.615,0,0,1,52.8,12.81c32.248-19.552,76.128-16.466,106.713,7.5,23.851,18.072,38.427,46.119,39.96,76.921a102.317,102.317,0,0,1-.041,11.974c-3.878,60.117-48.775,86.17-86.042,90.212a102.151,102.151,0,0,1-10.972.584M27.445,40.415a93.834,93.834,0,0,0-6.768,8.967A94.754,94.754,0,0,0,8.221,124.32c15.677,54.4,63.853,74.338,104.6,69.892,35.252-3.821,77.713-28.468,81.384-85.343a96.578,96.578,0,0,0,.04-11.37c-1.455-29.262-15.28-55.882-37.933-73.047a90.688,90.688,0,0,0-37.12-17.214,93.391,93.391,0,0,1,44.342,32.143c23.1,30.54,29.94,79.483-6.842,120-22.755,25.069-58.87,33.132-92,20.511C33.257,167.927,13.53,140.21,13.207,107.553a79.217,79.217,0,0,1,16.265-48.22,2.6,2.6,0,0,1,1.9-1.029,2.654,2.654,0,0,1,2.028.752L60.65,86.179a2.616,2.616,0,0,1-.106,3.813c-1.234,1.1-26.1,23.834-9.2,57.791-2.2-10.348-1.691-20.067,1.528-29.053C58.807,102.2,72.216,92.893,78.5,89.3c-1.508-1.39-3.478-3.278-6.1-5.787Zm169.372,68.621h0Z" transform="translate(0 0)" fill="#1a1718"/><path d="M160.884,103.282s-6.947,1.632-10.755,2.72c-31.721,9.123-76.407,31.255-64.857,62.222-24.118-45.765,47.224-69.72,49.3-70.658L75.2,36.352a7.242,7.242,0,0,1-1.256-1.716H95.708Z" transform="translate(3.779 1.77)" fill="#d26460"/><path d="M85.4,170.967a2.613,2.613,0,0,1-2.313-1.4c-5.856-11.107-6.841-21.962-2.929-32.265,8.137-21.444,35.718-34.933,49.923-40.622L73.452,38.3A9.8,9.8,0,0,1,71.768,36a2.615,2.615,0,0,1,2.305-3.85H95.835a2.621,2.621,0,0,1,1.9.814l65.176,68.646a2.617,2.617,0,0,1-1.3,4.348c-.008,0-6.874,1.615-10.634,2.685-24.087,6.931-53.03,20.679-62,38.477a24.5,24.5,0,0,0-1.124,20.32,2.617,2.617,0,0,1-2.452,3.531M79.844,37.379l56.732,58.49a2.615,2.615,0,0,1-.8,4.205c-.127.057-.461.188-.989.388-12.3,4.634-41.775,17.688-49.748,38.7a30.337,30.337,0,0,0-1.868,8.076c.338-.829.715-1.651,1.128-2.472,12.244-24.292,53.022-37.639,65.228-41.15,1.811-.515,4.316-1.153,6.47-1.684L94.712,37.379Z" transform="translate(3.652 1.643)" fill="#1a1718"/></g></svg>