<svg xmlns="http://www.w3.org/2000/svg" xmlns:xlink="http://www.w3.org/1999/xlink" width="200" height="125.377" viewBox="0 0 200 125.377"><defs><clipPath id="a"><rect width="200" height="125.377" fill="none"/></clipPath></defs><g clip-path="url(#a)"><path d="M172.042,48.664A48.36,48.36,0,0,0,79.825,30.624,32.373,32.373,0,0,0,24.038,63.265a30.387,30.387,0,0,0,8.88,59.448H159.176a38.139,38.139,0,0,0,12.867-74.049" transform="translate(0.066 0.066)" fill="#f4fbfe"/><path d="M159.243,125.377H32.982a32.988,32.988,0,0,1-12.42-63.546A34.466,34.466,0,0,1,17.986,48.7,34.98,34.98,0,0,1,79.463,25.854,50.952,50.952,0,0,1,174.6,46.9a40.736,40.736,0,0,1-15.353,78.477M52.973,18.9A29.826,29.826,0,0,0,23.18,48.7a29.419,29.419,0,0,0,3.242,13.459,2.6,2.6,0,0,1-1.559,3.659,27.791,27.791,0,0,0,8.119,54.369H159.243a35.544,35.544,0,0,0,11.99-69.012,2.59,2.59,0,0,1-1.717-2.32,45.765,45.765,0,0,0-87.27-17.07,2.6,2.6,0,0,1-2.154,1.5,2.654,2.654,0,0,1-2.361-1.144A29.758,29.758,0,0,0,52.973,18.9" transform="translate(0 0)" fill="#050605"/><path d="M134.006,76.3h3.345V93.437h14.5l-2.129,3.349H134.006Z" transform="translate(3.512 2)" fill="#e4001b" fill-rule="evenodd"/><path d="M106.894,96.785,94.52,77.259a2.2,2.2,0,0,0-3.652.051L78.595,96.785h4.058l3.7-5.883h7.911l2.08-3.347H88.435l4.311-6.744,10.092,15.975Z" transform="translate(2.06 2)" fill="#e4001b" fill-rule="evenodd"/><path d="M114.969,76.3c-5.653,0-9.375,4.583-9.375,10.237s3.723,10.24,9.375,10.24l13.747-.016,2.152-3.319h-15.8c-3.809,0-6.04-3.091-6.04-6.9s2.23-6.9,6.04-6.9h14.073l2.077-3.344Z" transform="translate(2.768 2)" fill="#e4001b" fill-rule="evenodd"/><path d="M28.557,79.636h14.5c3.812,0,6.042,3.091,6.042,6.9s-2.229,6.9-6.042,6.9h-14.5c-3.812,0-6.041-3.091-6.041-6.9s2.229-6.9,6.041-6.9m0-3.334c-5.654,0-9.376,4.583-9.376,10.237s3.722,10.24,9.376,10.24h14.5c5.654,0,9.376-4.585,9.376-10.24S48.715,76.3,43.061,76.3Z" transform="translate(0.503 2)" fill="#e4001b" fill-rule="evenodd"/><path d="M155.877,88.164c.545,3.029,2.629,5.28,5.883,5.28h15.8L175.4,96.763l-13.745.017c-5.655,0-9.375-4.586-9.375-10.24S156.005,76.3,161.659,76.3l16.25-.009-2.076,3.344H161.761c-3.209,0-5.3,2.213-5.883,5.179h19.855l-2.13,3.347H155.877Z" transform="translate(3.991 2)" fill="#e4001b" fill-rule="evenodd"/><path d="M71.251,88.461a6.08,6.08,0,0,0,0-12.158L54.185,76.3V96.784h3.754V79.638H71.251a2.744,2.744,0,0,1,0,5.487H60.575L72.619,96.762h4.845l-8.621-8.294Z" transform="translate(1.42 2)" fill="#e4001b" fill-rule="evenodd"/></g></svg>