<svg xmlns="http://www.w3.org/2000/svg" xmlns:xlink="http://www.w3.org/1999/xlink" width="199.772" height="200" viewBox="0 0 199.772 200"><defs><clipPath id="a"><rect width="199.772" height="200" fill="none"/></clipPath></defs><g clip-path="url(#a)"><path d="M187.325,51.517H12.314A9.774,9.774,0,0,0,2.54,61.292v81.486a9.774,9.774,0,0,0,9.774,9.774h23.1V105.5a3.467,3.467,0,0,1,3.467-3.467H160.942a3.467,3.467,0,0,1,3.467,3.467v47.05h22.916a9.774,9.774,0,0,0,9.774-9.774V61.292a9.774,9.774,0,0,0-9.774-9.775" transform="translate(0.066 1.341)" fill="#cfcfcf"/><path d="M160.108,100.754H38.045a3.467,3.467,0,0,0-3.467,3.467v87.086a3.467,3.467,0,0,0,3.467,3.467H160.108a3.467,3.467,0,0,0,3.467-3.467V104.221a3.467,3.467,0,0,0-3.467-3.467" transform="translate(0.9 2.622)" fill="#fff"/><path d="M162.721,52.793H35.432a.853.853,0,0,1-.854-.854V3.393a.853.853,0,0,1,.854-.853h127.29a.853.853,0,0,1,.854.853V51.939a.854.854,0,0,1-.854.854" transform="translate(0.9 0.066)" fill="#fff"/><path d="M187.39,50.253h-20.4a5.942,5.942,0,0,0,.087-.859V6.073A6.078,6.078,0,0,0,161.006,0H38.945a6.078,6.078,0,0,0-6.073,6.073V49.394a5.94,5.94,0,0,0,.087.859H12.382A12.4,12.4,0,0,0,0,62.635v81.484A12.4,12.4,0,0,0,12.382,156.5h20.49v37.426A6.078,6.078,0,0,0,38.945,200H161.006a6.078,6.078,0,0,0,6.073-6.073V156.5H187.39a12.4,12.4,0,0,0,12.382-12.382V62.635A12.4,12.4,0,0,0,187.39,50.253M38.082,49.394V6.073a.864.864,0,0,1,.863-.863H161.006a.864.864,0,0,1,.863.863V49.394a.863.863,0,0,1-.863.859H38.945a.863.863,0,0,1-.863-.859M161.869,193.927a.863.863,0,0,1-.863.863H38.945a.863.863,0,0,1-.863-.863V106.842a.864.864,0,0,1,.863-.863H161.006a.864.864,0,0,1,.863.863v87.085Zm32.693-49.808a7.178,7.178,0,0,1-7.172,7.172H167.079V106.842a6.078,6.078,0,0,0-6.073-6.073H38.945a6.078,6.078,0,0,0-6.073,6.073V151.29H12.382a7.178,7.178,0,0,1-7.172-7.172V62.635a7.178,7.178,0,0,1,7.172-7.172H187.39a7.178,7.178,0,0,1,7.172,7.172Z" fill="#050605"/><path d="M137.265,126.718H60.124a2.605,2.605,0,1,1,0-5.21h77.141a2.605,2.605,0,0,1,0,5.21" transform="translate(1.497 3.162)" fill="#050605"/><path d="M137.265,147.311H60.124a2.605,2.605,0,1,1,0-5.21h77.141a2.605,2.605,0,0,1,0,5.21" transform="translate(1.497 3.698)" fill="#050605"/><path d="M137.265,167.9H60.124a2.605,2.605,0,0,1,0-5.21h77.141a2.605,2.605,0,0,1,0,5.21" transform="translate(1.497 4.234)" fill="#050605"/><path d="M167.018,78.555a4.865,4.865,0,1,1-4.864-4.864,4.864,4.864,0,0,1,4.864,4.864" transform="translate(4.093 1.918)" fill="#c7d237"/><path d="M162.217,86.091a7.469,7.469,0,1,1,7.474-7.468,7.477,7.477,0,0,1-7.474,7.468m0-9.728a2.259,2.259,0,1,0,2.263,2.259,2.262,2.262,0,0,0-2.263-2.259" transform="translate(4.027 1.852)" fill="#050605"/><path d="M146.672,78.555a4.865,4.865,0,1,1-4.864-4.864,4.864,4.864,0,0,1,4.864,4.864" transform="translate(3.564 1.918)" fill="#df3a3e"/><path d="M141.874,86.091a7.469,7.469,0,1,1,7.469-7.468,7.477,7.477,0,0,1-7.469,7.468m0-9.728a2.259,2.259,0,1,0,2.259,2.259,2.262,2.262,0,0,0-2.259-2.259" transform="translate(3.498 1.852)" fill="#050605"/></g></svg>