<svg xmlns="http://www.w3.org/2000/svg" xmlns:xlink="http://www.w3.org/1999/xlink" width="200" height="200" viewBox="0 0 200 200"><defs><clipPath id="a"><rect width="200" height="200" fill="none"/></clipPath></defs><g clip-path="url(#a)"><path d="M177.379,197.331H22.489a19.95,19.95,0,0,1-19.95-19.95V22.491a19.95,19.95,0,0,1,19.95-19.95h154.89a19.949,19.949,0,0,1,19.949,19.95v154.89a19.95,19.95,0,0,1-19.949,19.95" transform="translate(0.065 0.065)" fill="#fdd700"/><path d="M177.918,200H22.081A22.1,22.1,0,0,1,0,177.919V22.082A22.1,22.1,0,0,1,22.081,0H177.918A22.105,22.105,0,0,1,200,22.082V177.919A22.1,22.1,0,0,1,177.918,200M22.081,5.213A16.888,16.888,0,0,0,5.212,22.082V177.919a16.888,16.888,0,0,0,16.869,16.869H177.918a16.888,16.888,0,0,0,16.869-16.869V22.082A16.888,16.888,0,0,0,177.918,5.213Z" fill="#050605"/><path d="M32.985,76.012h18.9C65.383,76.012,68,81.364,68,87.994c0,4.537-3.6,7.738-8.43,8.435,4.011.583,7.615,4.072,7.615,8.258,0,2.5.35,3.955,1.4,3.955.872,0,1.339-.7,1.339-1.862v-1.918h3.893v3.2c0,4.831-2.032,9.306-8.491,9.306-7.615,0-11.281-4.011-11.281-10.816,0-5.294-.639-6.573-5.815-6.573v9.016h3.548v7.677H32.985v-7.677h3.258V83.633H32.985Zm15.24,7.563v9.888h2.614c3.376,0,5.584-1.629,5.584-4.712,0-3.434-1.918-5.176-5.29-5.176Z" transform="translate(0.846 1.949)" fill="#050605"/><path d="M73.991,101.74c.057-9.714,7.909-15.122,15.935-15.122,9.192.118,15.994,5.641,16.168,15.354.119,9.656-7.037,15.183-15.875,15.183-8.32,0-16.343-5.119-16.229-15.414m20.184.232c0-4.362-1.515-7.733-4.248-7.791-2.268,0-4.011,3.372-4.011,7.615,0,4.769,1.862,7.913,4.3,7.913,2.5,0,3.955-3.375,3.955-7.737" transform="translate(1.897 2.221)" fill="#050605"/><path d="M107.992,89.782c2.326-1.4,7.331-4.129,12.678-4.129,6.981,0,15.765,2.618,15.765,11.982v11.342h3.49v7.445H127.476l-1.393-2.618a9.865,9.865,0,0,1-7.852,3.723c-5.526,0-11.461-2.966-11.461-9.714,0-6.568,5.527-10.7,12.1-10.7a8.29,8.29,0,0,1,5.759,2.033V97.112c0-2.618-2.388-3.257-5.526-3.257a18.147,18.147,0,0,0-8.667,2.676Zm16.637,18.262v-2.207a3.629,3.629,0,0,0-3.433-1.686c-2.326,0-3.372,1.279-3.372,3.083a2.824,2.824,0,0,0,3.083,2.732,4.568,4.568,0,0,0,3.722-1.922" transform="translate(2.738 2.196)" fill="#050605"/><path d="M157.829,116.415H141.367V108.8h2.558V94.9h-2.5V87.333h10.934l1.748,3.722c1.511-2.79,3.022-5.176,9.012-5.176V96.35c-5.233,0-8.2,1.335-8.2,6.455V108.8h2.908Z" transform="translate(3.625 2.202)" fill="#050605"/></g></svg>