<svg xmlns="http://www.w3.org/2000/svg" xmlns:xlink="http://www.w3.org/1999/xlink" width="200" height="200" viewBox="0 0 200 200"><defs><clipPath id="a"><rect width="200" height="200" fill="none"/></clipPath></defs><g clip-path="url(#a)"><path d="M110.88,15.593A13.054,13.054,0,1,1,97.825,2.539,13.055,13.055,0,0,1,110.88,15.593" transform="translate(2.174 0.065)" fill="#89b92d"/><path d="M97.889,31.32a15.66,15.66,0,1,1,15.663-15.662A15.678,15.678,0,0,1,97.889,31.32m0-26.109a10.449,10.449,0,1,0,10.451,10.447A10.458,10.458,0,0,0,97.889,5.211" transform="translate(2.108)" fill="#1a1818"/><path d="M110.88,180.058A13.054,13.054,0,1,1,97.825,167a13.055,13.055,0,0,1,13.054,13.054" transform="translate(2.174 4.282)" fill="#89b92d"/><path d="M97.889,195.783a15.66,15.66,0,1,1,15.663-15.657,15.674,15.674,0,0,1-15.663,15.657m0-26.109a10.449,10.449,0,1,0,10.451,10.451,10.462,10.462,0,0,0-10.451-10.451" transform="translate(2.108 4.217)" fill="#1a1818"/><path d="M15.594,84.772A13.054,13.054,0,1,1,2.54,97.826,13.054,13.054,0,0,1,15.594,84.772" transform="translate(0.065 2.174)" fill="#257432"/><path d="M15.658,113.551A15.66,15.66,0,1,1,31.321,97.889a15.678,15.678,0,0,1-15.663,15.662m0-26.109A10.449,10.449,0,1,0,26.11,97.889,10.458,10.458,0,0,0,15.658,87.442" transform="translate(0 2.108)" fill="#1a1818"/><path d="M180.057,84.772A13.054,13.054,0,1,1,167,97.826a13.055,13.055,0,0,1,13.054-13.054" transform="translate(4.282 2.174)" fill="#89b92d"/><path d="M180.121,113.551a15.66,15.66,0,1,1,15.663-15.662,15.678,15.678,0,0,1-15.663,15.662m0-26.109a10.449,10.449,0,1,0,10.451,10.447,10.458,10.458,0,0,0-10.451-10.447" transform="translate(4.217 2.108)" fill="#1a1818"/><rect width="26.156" height="73.709" transform="translate(110.22 128.482) rotate(-45)" fill="#89b92d"/><path d="M159.651,180.522a2.6,2.6,0,0,1-1.844-.762l-52.121-52.12a2.617,2.617,0,0,1,0-3.688l18.5-18.5a2.608,2.608,0,0,1,3.688,0l52.12,52.12a2.615,2.615,0,0,1,0,3.688l-18.5,18.5a2.6,2.6,0,0,1-1.844.762M111.215,125.8l48.436,48.436,14.811-14.811-48.436-48.436Z" transform="translate(2.69 2.684)" fill="#1a1818"/><rect width="73.626" height="26.156" transform="translate(110.279 71.68) rotate(-45)" fill="#89b92d"/><path d="M126.082,92.354a2.594,2.594,0,0,1-1.844-.762l-18.5-18.5a2.615,2.615,0,0,1,0-3.688L157.8,17.349a2.61,2.61,0,0,1,3.688,0l18.5,18.5a2.615,2.615,0,0,1,0,3.688L127.926,91.592a2.594,2.594,0,0,1-1.844.762m-14.811-21.1,14.811,14.811L174.46,37.69,159.649,22.878Z" transform="translate(2.692 0.425)" fill="#1a1818"/><path d="M99.847,81.124l-62-62-18.5,18.5,62,62-62,62,18.5,18.494,62-62,18.5-18.5Z" transform="translate(0.496 0.49)" fill="#257432"/><path d="M37.917,182.781a2.6,2.6,0,0,1-1.845-.762l-18.5-18.5a2.619,2.619,0,0,1,0-3.688L77.733,99.682,17.575,39.534a2.617,2.617,0,0,1,0-3.688l18.5-18.5a2.611,2.611,0,0,1,3.689,0l80.487,80.489a2.606,2.606,0,0,1,.005,3.688L39.761,182.019a2.6,2.6,0,0,1-1.844.762m-14.811-21.1,14.811,14.811,76.808-76.808L98.068,83.035,37.917,22.878,23.105,37.69,83.262,97.838a2.617,2.617,0,0,1,0,3.688Z" transform="translate(0.431 0.425)" fill="#1a1818"/></g></svg>