<svg xmlns="http://www.w3.org/2000/svg" xmlns:xlink="http://www.w3.org/1999/xlink" width="198.366" height="200" viewBox="0 0 198.366 200"><defs><clipPath id="a"><rect width="198.366" height="200" fill="none"/></clipPath></defs><path d="M195.166,175.585,22.147,2.566H195.166Z" transform="translate(0.568 0.066)" fill="#5cb5e7"/><g clip-path="url(#a)"><path d="M195.23,178.283a2.645,2.645,0,0,1-1.864-.769L20.35,4.5A2.636,2.636,0,0,1,22.214,0H195.23a2.636,2.636,0,0,1,2.634,2.634V175.65a2.635,2.635,0,0,1-2.634,2.633M28.571,5.267,192.6,169.293V5.267Z" transform="translate(0.502)" fill="#050606"/><path d="M91.52,194.657,2.567,105.7H91.52Z" transform="translate(0.066 2.71)" fill="#f4fbfe"/><path d="M91.586,197.355a2.65,2.65,0,0,1-1.865-.77L.769,107.633a2.636,2.636,0,0,1,1.864-4.5H91.586a2.635,2.635,0,0,1,2.633,2.634v88.952a2.638,2.638,0,0,1-2.633,2.634M8.99,108.4l79.962,79.962V108.4Z" transform="translate(0 2.645)" fill="#050606"/></g></svg>