<svg xmlns="http://www.w3.org/2000/svg" xmlns:xlink="http://www.w3.org/1999/xlink" width="25" height="25" viewBox="0 0 25 25"><defs><clipPath id="a"><rect width="25" height="25" fill="none"/></clipPath></defs><g transform="translate(0 0)"><g transform="translate(0 0)" clip-path="url(#a)"><path d="M6.962,3.481A3.481,3.481,0,1,1,3.481,0,3.481,3.481,0,0,1,6.962,3.481" transform="translate(0 0)"/><path d="M25.281,3.481A3.481,3.481,0,1,1,21.8,0a3.481,3.481,0,0,1,3.481,3.481" transform="translate(-9.3 0)"/><path d="M43.6,3.481A3.481,3.481,0,1,1,40.12,0,3.481,3.481,0,0,1,43.6,3.481" transform="translate(-18.601 0)"/><path d="M6.962,21.8a3.481,3.481,0,1,1-3.481-3.481A3.481,3.481,0,0,1,6.962,21.8" transform="translate(0 -9.3)"/><path d="M25.281,21.8A3.481,3.481,0,1,1,21.8,18.319,3.481,3.481,0,0,1,25.281,21.8" transform="translate(-9.3 -9.3)"/><path d="M43.6,21.8a3.481,3.481,0,1,1-3.481-3.481A3.481,3.481,0,0,1,43.6,21.8" transform="translate(-18.601 -9.3)"/><path d="M6.962,40.119a3.481,3.481,0,1,1-3.481-3.481,3.481,3.481,0,0,1,3.481,3.481" transform="translate(0 -18.6)"/><path d="M25.281,40.119A3.481,3.481,0,1,1,21.8,36.638a3.481,3.481,0,0,1,3.481,3.481" transform="translate(-9.3 -18.6)"/><path d="M43.6,40.119a3.481,3.481,0,1,1-3.481-3.481A3.481,3.481,0,0,1,43.6,40.119" transform="translate(-18.601 -18.6)"/></g></g></svg>