<svg xmlns="http://www.w3.org/2000/svg" xmlns:xlink="http://www.w3.org/1999/xlink" width="100.006" height="100" viewBox="0 0 100.006 100"><defs><clipPath id="a"><rect width="100.006" height="100" fill="none"/></clipPath></defs><g transform="translate(0 0)"><g transform="translate(0 0)" clip-path="url(#a)"><path d="M32.77,16.165A15.271,15.271,0,0,0,47.932,3.191a.985.985,0,0,0-.69-1.1,50.3,50.3,0,0,0-28.935.063.989.989,0,0,0-.686,1.1A15.284,15.284,0,0,0,32.77,16.165" transform="translate(17.117 0.001)"/><path d="M50.5,27.676A15.35,15.35,0,0,0,59.567,24.7a.987.987,0,0,0,.286-1.264A50.011,50.011,0,0,0,39.343,3.028a1,1,0,0,0-1.264.292A15.372,15.372,0,0,0,50.5,27.676" transform="translate(34.174 2.834)"/><path d="M56.6,18.29a.984.984,0,0,0-1.089-.688,15.346,15.346,0,0,0,.067,30.369,1.172,1.172,0,0,0,.142.01.985.985,0,0,0,.943-.7A50.006,50.006,0,0,0,58.77,32.9,50.116,50.116,0,0,0,56.6,18.29" transform="translate(41.236 17.1)"/><path d="M39.616,39.544a15.409,15.409,0,0,0-1.365,20.141.99.99,0,0,0,1.252.272,50,50,0,0,0,20.48-20.563.991.991,0,0,0-.276-1.252,15.421,15.421,0,0,0-20.092,1.4" transform="translate(34.161 34.095)"/><path d="M32.792,42.349a15.419,15.419,0,0,0-15.2,13.221.988.988,0,0,0,.688,1.081,50.112,50.112,0,0,0,29.026.063A.984.984,0,0,0,48,55.637,15.4,15.4,0,0,0,32.792,42.349" transform="translate(17.093 41.169)"/><path d="M3.3,38.1a.986.986,0,0,0-.282,1.254A50.02,50.02,0,0,0,23.472,59.932a.991.991,0,0,0,.467.118.977.977,0,0,0,.785-.39A15.346,15.346,0,0,0,3.3,38.1" transform="translate(2.823 34.097)"/><path d="M16.173,32.747A15.287,15.287,0,0,0,3.278,17.6a.966.966,0,0,0-1.1.684A50.146,50.146,0,0,0,2.09,47.221a.99.99,0,0,0,.947.7,1,1,0,0,0,.152-.012A15.27,15.27,0,0,0,16.173,32.747" transform="translate(0 17.095)"/><path d="M12.323,27.784A15.366,15.366,0,0,0,24.708,3.371a.986.986,0,0,0-1.266-.284A49.971,49.971,0,0,0,3.034,23.6a.988.988,0,0,0,.292,1.264,15.327,15.327,0,0,0,9,2.923" transform="translate(2.837 2.885)"/><path d="M28,11.631a5.512,5.512,0,1,0,5.512,5.512A5.519,5.519,0,0,0,28,11.631" transform="translate(21.856 11.307)"/><path d="M31.824,24.2a5.513,5.513,0,1,0,0-7.8,5.5,5.5,0,0,0,0,7.8" transform="translate(29.371 14.383)"/><path d="M33.21,28.005a5.512,5.512,0,1,0,5.512-5.512,5.519,5.519,0,0,0-5.512,5.512" transform="translate(32.284 21.867)"/><path d="M39.411,31.755a5.513,5.513,0,1,0,1.613,3.9,5.519,5.519,0,0,0-1.613-3.9" transform="translate(29.165 29.304)"/><path d="M28,33.326a5.512,5.512,0,1,0,5.512,5.512A5.519,5.519,0,0,0,28,33.326" transform="translate(21.856 32.397)"/><path d="M24.261,39.525a5.516,5.516,0,0,0,0-7.794,5.647,5.647,0,0,0-7.8,0v0a5.511,5.511,0,0,0,7.794,7.794" transform="translate(14.438 29.328)"/><path d="M11.623,27.99a5.512,5.512,0,1,0,5.512-5.512,5.519,5.519,0,0,0-5.512,5.512" transform="translate(11.299 21.852)"/><path d="M16.4,24.268a5.511,5.511,0,1,0,7.794-7.794v0a5.512,5.512,0,0,0-7.794,7.8" transform="translate(14.372 14.449)"/></g></g></svg>