<svg xmlns="http://www.w3.org/2000/svg" xmlns:xlink="http://www.w3.org/1999/xlink" width="99.998" height="100" viewBox="0 0 99.998 100"><defs><clipPath id="a"><rect width="99.998" height="100" fill="none"/></clipPath></defs><g transform="translate(0 0)"><g transform="translate(0 0)" clip-path="url(#a)"><path d="M99.2,41.162a3.954,3.954,0,0,0-3.89-3.256h-44.1a3.953,3.953,0,0,0-3.954,3.954V59.267a3.953,3.953,0,0,0,3.954,3.954h18.8a24.455,24.455,0,0,1-6.261,6.446l0,0A23.769,23.769,0,0,1,50,74.036,24.129,24.129,0,0,1,27.46,58.261,23.994,23.994,0,0,1,66.155,32.242a3.951,3.951,0,0,0,5.478-.146L84.308,19.248a3.951,3.951,0,0,0-.107-5.656A49.966,49.966,0,0,0,0,50,49.955,49.955,0,0,0,83.132,87.392,49.826,49.826,0,0,0,99.2,41.162M10.442,64.409A41.679,41.679,0,0,1,7.907,50a42.25,42.25,0,0,1,2.926-15.427l8.512,6.494A31.387,31.387,0,0,0,19.124,58.1l-7.508,5.456ZM50,7.907a41.811,41.811,0,0,1,25.7,8.809L68.513,24A31.873,31.873,0,0,0,22.6,33.606l-8.119-6.2A42.019,42.019,0,0,1,50,7.907m0,84.185A41.848,41.848,0,0,1,13.911,71.664l8.281-6.019A32.065,32.065,0,0,0,50,81.944a31.581,31.581,0,0,0,15.775-4.195l6.448,5.138,1.933,1.542A41.941,41.941,0,0,1,50,92.093M91.237,58.477A41.546,41.546,0,0,1,80.273,79.192L72.289,72.83a31.771,31.771,0,0,0,7.818-12.248,3.953,3.953,0,0,0-3.728-5.268H55.167v-9.5H91.875A40.97,40.97,0,0,1,92.091,50a42.446,42.446,0,0,1-.854,8.477" transform="translate(0 0)"/></g></g></svg>