<svg xmlns="http://www.w3.org/2000/svg" xmlns:xlink="http://www.w3.org/1999/xlink" width="30" height="23" viewBox="0 0 30 23"><defs><clipPath id="a"><rect width="30" height="23" transform="translate(2.5 -2.369)" fill="none"/></clipPath></defs><g transform="translate(-2.5 2.369)"><g transform="translate(0 0)" clip-path="url(#a)"><path d="M28.245,32.773H1.755a1.755,1.755,0,1,1,0-3.51h26.49a1.755,1.755,0,1,1,0,3.51" transform="translate(2.5 -12.632)"/><path d="M28.245,3.51H1.755a1.755,1.755,0,0,1,0-3.51h26.49a1.755,1.755,0,1,1,0,3.51" transform="translate(2.5 -1.369)"/><path d="M28.245,18.141H1.755a1.755,1.755,0,0,1,0-3.51h26.49a1.755,1.755,0,1,1,0,3.51" transform="translate(2.5 -7)"/></g></g></svg>