<svg xmlns="http://www.w3.org/2000/svg" width="119.753" height="77.081" viewBox="0 0 119.753 77.081"><path d="M685.692,450.281H613.133a21.458,21.458,0,0,1-10.225-40.31,22.159,22.159,0,0,1-.983-6.292,22.616,22.616,0,0,1,22.613-22.613,22.089,22.089,0,0,1,14.748,5.506A31.774,31.774,0,0,1,696.7,400.926a26.2,26.2,0,0,1,14.748,23.4A25.64,25.64,0,0,1,685.692,450.281Zm-60.957-61.154a14.728,14.728,0,0,0-14.748,14.748,15.878,15.878,0,0,0,1.573,6.686,3.947,3.947,0,0,1,.2,3.343,3.578,3.578,0,0,1-2.556,2.163,13.564,13.564,0,0,0,3.933,26.546h72.559a18.169,18.169,0,0,0,18.09-18.09,17.968,17.968,0,0,0-11.995-16.911,3.779,3.779,0,0,1-2.556-3.539,23.783,23.783,0,0,0-45.423-8.849,3.931,3.931,0,0,1-3.343,2.36,3.771,3.771,0,0,1-3.539-1.77A14.967,14.967,0,0,0,624.735,389.127Z" transform="translate(-591.7 -373.2)" fill="#010101"/></svg>