<svg xmlns="http://www.w3.org/2000/svg" xmlns:xlink="http://www.w3.org/1999/xlink" width="82.246" height="100" viewBox="0 0 82.246 100">
  <defs>
    <clipPath id="clip-path">
      <rect id="Rectangle_206" data-name="Rectangle 206" width="82.246" height="100" fill="none"/>
    </clipPath>
  </defs>
  <g id="paws-logo-micro-icon" transform="translate(0 0)">
    <g id="Group_244" data-name="Group 244" transform="translate(0 0)" clip-path="url(#clip-path)">
      <path id="Path_2511" data-name="Path 2511" d="M15.195,39.269C8.936,43.2,3.375,35.041,1.312,29.615s-2-15.681,2.43-17.312,9.089,6.624,11.021,11.485,3.4,13.618.432,15.482" transform="translate(0 11.99)"/>
      <path id="Path_2512" data-name="Path 2512" d="M21.258,35.212C12.7,37.076,9.339,29.052,9.172,21.1S11.069.719,16.263.02,26.619,16.667,27.151,21.895c.466,5.228-.4,12.084-5.893,13.317" transform="translate(9.084 0)"/>
      <path id="Path_2513" data-name="Path 2513" d="M31.7,35.333c-8.723-.432-9.888-9.089-7.958-16.812S30.933-.623,36.127.076s5.594,18.81,4.728,23.971S37.326,35.632,31.7,35.333" transform="translate(22.747 0.046)"/>
      <path id="Path_2514" data-name="Path 2514" d="M34.44,38.923C40.665,42.884,46.293,34.8,48.39,29.4s2.1-15.649-2.3-17.346c-4.427-1.665-9.121,6.524-11.12,11.385s-3.5,13.584-.532,15.482" transform="translate(32.492 11.736)"/>
      <path id="Path_2515" data-name="Path 2515" d="M56.525,36.147C52.763,26.026,45.072,19.068,36.182,19.068c-9.155,0-17.079,7.392-20.676,18.045C9.249,39.11,4.587,46.4,4.587,55.058c0,10.22,6.426,18.477,14.349,18.477a12.251,12.251,0,0,0,2.2-.2c3.995,4.827,9.288,7.757,15.048,7.757,6.06,0,11.553-3.228,15.647-8.49a10.587,10.587,0,0,0,2.065.2c7.924,0,14.349-8.291,14.349-18.479,0-9.055-5.06-16.579-11.718-18.178m-8.93,17.2a11.16,11.16,0,0,1-7.641,2.517H34.977V66.284H26.033V37.575H38.3a18.1,18.1,0,0,1,6.974,1.042,8.385,8.385,0,0,1,3.792,3.212,8.828,8.828,0,0,1,1.388,4.861,8.4,8.4,0,0,1-2.864,6.658M38.1,44.173H34.859v5.556h2.953c2.6,0,3.877-.954,3.877-2.866,0-1.792-1.187-2.69-3.589-2.69" transform="translate(4.548 18.906)"/>
    </g>
  </g>
</svg>
