<svg xmlns="http://www.w3.org/2000/svg" xmlns:xlink="http://www.w3.org/1999/xlink" width="90.823" height="100" viewBox="0 0 90.823 100"><defs><clipPath id="a"><rect width="90.823" height="100" fill="none"/></clipPath></defs><g clip-path="url(#a)"><path d="M31.609,18.062c-9.027,2.105-14.354,11.844-14.117,19.654.231,7.448,6.864,42.31,7.144,43.792a1.971,1.971,0,0,0,1.94,1.6h9.011A1.969,1.969,0,0,0,37.558,81.2l.318-9.82A24.979,24.979,0,0,0,52.5,65.764a30.749,30.749,0,0,0,11.842-20.7,26.164,26.164,0,0,0-5.2-19.31c-7.823-9.771-22.53-8.865-27.536-7.689M49.088,41.139c-.55,1.458-2.188,4.556-6.708,7.239a21,21,0,0,1-7.695,3.084c-.594-3.216-1.413-10.83,3.48-13.235a7.7,7.7,0,0,1,3.429-.829c3.494,0,6.29,2.472,7.494,3.741" transform="translate(17.013 16.889)"/><path d="M52.3,2.718c-2.176-.874-5.183-.375-8.054,1.34-2.5,1.488-8.429,6.1-9.625,16.747-.418,3.97.42,7.31,2.421,9.66a10.937,10.937,0,0,0,7.983,3.575c.193.01.383.016.572.016,6.036,0,10.246-5.574,11.313-15.052C57.958,9.715,56.451,4.39,52.3,2.718" transform="translate(33.589 2.234)"/><path d="M30.136,28.146c-2.648-5.959-12.29-9.993-19.709-10.317-4.6-.191-7.876,1.038-9.232,3.488a9.422,9.422,0,0,0-.744,7.492c1.255,4.066,5.043,7.951,10.4,10.66a20.421,20.421,0,0,0,9.125,2.474A10.97,10.97,0,0,0,27.6,39.157a10.045,10.045,0,0,0,2.553-10.968l-.02-.043" transform="translate(0 17.329)"/><path d="M34.5,32.134a11.443,11.443,0,0,0,2.47-.26c4.439-1.365,6.61-6.053,5.955-12.862C42.206,11.518,37.623.68,31.8.055A7.568,7.568,0,0,0,25.078,2.59c-4.268,4.769-3.857,14.729-3.017,18.539C23.9,29.408,29.77,32.134,34.5,32.134" transform="translate(20.939 0.001)"/><path d="M33.777,29.671c1.571-2.709,1.381-6.5-.554-11.268C30.456,11.594,19.435,3.789,12.841,5.519A5.928,5.928,0,0,0,8.847,8.927c-1.967,4.353.174,11.631,2.093,15.461,1.233,2.462,4.791,9.561,13.365,9.561a16.854,16.854,0,0,0,2.277-.158c3.463-.47,5.884-1.859,7.194-4.12" transform="translate(7.849 5.133)"/></g></svg>