<svg xmlns="http://www.w3.org/2000/svg" width="316.798" height="145.952" viewBox="0 0 316.798 145.952"><g transform="translate(0 -953.305)"><path d="M242.519,913.622H223.368a2.717,2.717,0,0,0-2.715,2.714V931.8a2.717,2.717,0,0,0,2.715,2.715h19.151a5.415,5.415,0,0,1,0,10.831H223.368a2.716,2.716,0,0,0-2.715,2.714v15.467a2.717,2.717,0,0,0,2.715,2.714h19.151a26.307,26.307,0,0,0,0-52.614m0,47.186H226.081V950.771h16.437a10.844,10.844,0,1,0,0-21.688H226.081V919.049h16.437a20.879,20.879,0,0,1,0,41.759" transform="translate(17.052 70.606)" fill="#050605"/><path d="M121.834,911.78H106.369a2.716,2.716,0,0,0-2.714,2.714v31.5H76.611a2.72,2.72,0,0,0-2.354,1.362l-10,17.421a2.714,2.714,0,0,0,2.354,4.067h55.227a2.717,2.717,0,0,0,2.715-2.714V914.494a2.717,2.717,0,0,0-2.715-2.714m-2.714,51.631H71.3l6.886-11.992h28.185a2.717,2.717,0,0,0,2.714-2.715v-31.5h10.038Z" transform="translate(4.938 70.463)" fill="#050605"/><path d="M147.153,913.316H132.332a2.716,2.716,0,0,0-2.715,2.714V931.5a2.716,2.716,0,0,0,2.715,2.714h15.393a21.045,21.045,0,0,1,.072,42.073H132.332A2.717,2.717,0,0,0,129.617,979v15.471a2.717,2.717,0,0,0,2.715,2.714h14.821a41.934,41.934,0,1,0,0-83.868m0,78.44H135.045V981.715h12.824a26.473,26.473,0,0,0-.072-52.929H135.045V918.743h12.108a36.506,36.506,0,1,1,0,73.013" transform="translate(10.017 70.582)" fill="#050605"/><path d="M257.654,899.27h-32.7a2.717,2.717,0,0,0-2.715,2.714V945.35H209.648a57.212,57.212,0,0,0-56.3-46.08h-28.49a2.446,2.446,0,0,0-.4.029H90.409a2.72,2.72,0,0,0-2.354,1.362L25.157,1010.2a2.714,2.714,0,0,0,2.353,4.067H44.1a2.72,2.72,0,0,0,2.354-1.361l16.7-29.075h58.993v27.755a2.715,2.715,0,0,0,2.714,2.714h28.49a57.732,57.732,0,0,0,51.444-31.933h17.445v29.186a2.717,2.717,0,0,0,2.715,2.714h14.575a2.717,2.717,0,0,0,2.715-2.714V982.808h15.415a41.769,41.769,0,0,0,0-83.538m0,78.109h-18.13a2.717,2.717,0,0,0-2.714,2.715v28.743h-9.147V979.652a2.717,2.717,0,0,0-2.714-2.714H203.08a2.712,2.712,0,0,0-2.464,1.577,52.289,52.289,0,0,1-47.271,30.356H127.571V981.115a2.717,2.717,0,0,0-2.715-2.714H61.575a2.718,2.718,0,0,0-2.353,1.361l-16.691,29.075H32.2L91.982,904.727h43.34a2.532,2.532,0,0,0,.288-.03h17.736A51.826,51.826,0,0,1,204.7,948.5a2.715,2.715,0,0,0,2.679,2.283H224.95a2.717,2.717,0,0,0,2.714-2.715V904.7h29.99a36.341,36.341,0,0,1,0,72.682" transform="translate(1.916 69.497)" fill="#050605"/><path d="M259.57,884.918H211.4a2.716,2.716,0,0,0-2.714,2.714v20.542a72.306,72.306,0,0,0-53.424-23.255H111.307a2.461,2.461,0,0,0-.4.029H83.377a2.719,2.719,0,0,0-2.354,1.362L.361,1026.77a2.714,2.714,0,0,0,2.353,4.067H54.968a2.719,2.719,0,0,0,2.354-1.362l17.281-30.1h33.99v28.777a2.715,2.715,0,0,0,2.714,2.714h43.955a72.313,72.313,0,0,0,53.424-23.255v20.508a2.717,2.717,0,0,0,2.714,2.714h45.5a2.716,2.716,0,0,0,2.714-2.714V999.379a57.23,57.23,0,0,0-.046-114.461m0,109.032H256.9a2.716,2.716,0,0,0-2.714,2.715v28.743H214.115v-25.265a2.714,2.714,0,0,0-4.882-1.633,67.045,67.045,0,0,1-53.971,26.933H114.02V996.665a2.717,2.717,0,0,0-2.714-2.715H73.034a2.717,2.717,0,0,0-2.354,1.362l-17.281,30.1H7.4L84.946,890.376h26.361a2.44,2.44,0,0,0,.4-.03h43.557a67.033,67.033,0,0,1,53.971,26.933,2.714,2.714,0,0,0,4.882-1.633v-25.3H259.57a51.8,51.8,0,0,1,0,103.605" transform="translate(0 68.387)" fill="#050605"/></g></svg>