<svg xmlns="http://www.w3.org/2000/svg" xmlns:xlink="http://www.w3.org/1999/xlink" width="250" height="200" viewBox="0 0 250 200"><defs><clipPath id="a"><rect width="202.911" height="200" fill="none"/></clipPath><clipPath id="c"><rect width="250" height="200"/></clipPath></defs><g id="b" clip-path="url(#c)"><g transform="translate(27)"><g clip-path="url(#a)"><path d="M124.174,125.576V89.352h34.047v19.44a2.635,2.635,0,0,0,5.269,0V13.919a2.636,2.636,0,0,0-2.635-2.636H134.568V2.635A2.637,2.637,0,0,0,131.933,0H109.948a2.636,2.636,0,0,0-2.635,2.635v8.649h-52V2.635A2.635,2.635,0,0,0,52.675,0H30.693a2.636,2.636,0,0,0-2.635,2.635v8.649H2.635A2.635,2.635,0,0,0,0,13.919V163.17a2.634,2.634,0,0,0,2.635,2.635H111.817a2.635,2.635,0,1,0,0-5.269H85.379V128.149h35.856a2.313,2.313,0,0,0,.3.062,2.635,2.635,0,0,0,2.635-2.635m34.047-41.493H124.175V54.733h34.046ZM112.583,24.157V5.269H129.3V26.9H112.583ZM33.328,22.889V5.269H50.04V26.9H33.328Zm7.984,137.647H5.269V128.149H41.312Zm0-37.657H5.269V89.352H41.312Zm0-38.8H5.269V54.733H41.312Zm38.8,76.453H46.582V128.149H80.109Zm0-37.657H46.582V89.352H80.109Zm0-38.8H46.582V54.733H80.109Zm38.795,38.8H85.379V89.352H118.9Zm0-38.8H85.379V54.733H118.9ZM5.269,49.463V16.554H28.059V29.538a2.636,2.636,0,0,0,2.635,2.635H52.675a2.635,2.635,0,0,0,2.635-2.635V16.554h52V29.538a2.636,2.636,0,0,0,2.635,2.635h21.985a2.637,2.637,0,0,0,2.635-2.635V16.554h23.653V49.463Z" fill="#050605"/><path d="M158.929,115.476A40.623,40.623,0,1,0,199.552,156.1a40.672,40.672,0,0,0-40.622-40.625m0,75.976A35.353,35.353,0,1,1,194.282,156.1a35.391,35.391,0,0,1-35.353,35.351" transform="translate(3.359 3.278)" fill="#050605"/><path d="M176.1,141.163a2.636,2.636,0,0,0-3.693.5L153.027,167.1l-8.065-8.065a2.635,2.635,0,1,0-3.726,3.726l10.2,10.2a2.642,2.642,0,0,0,1.862.769c.058,0,.119,0,.177,0a2.644,2.644,0,0,0,1.919-1.034L176.6,144.856a2.635,2.635,0,0,0-.5-3.693" transform="translate(3.988 3.992)" fill="#050605"/></g></g></g></svg>