<svg xmlns="http://www.w3.org/2000/svg" xmlns:xlink="http://www.w3.org/1999/xlink" width="216.597" height="200" viewBox="0 0 216.597 200"><defs><clipPath id="a"><rect width="216.597" height="200" fill="none"/></clipPath></defs><g clip-path="url(#a)"><path d="M100,200A100,100,0,1,1,165.906,24.826a2.614,2.614,0,0,1,.321,3.592L142.258,58.53a2.617,2.617,0,0,1-1.851.976,2.746,2.746,0,0,1-1.976-.694,56.412,56.412,0,1,0-10.7,90.264,2.621,2.621,0,0,1,3.333.645l24.088,30.263a2.613,2.613,0,0,1-.617,3.816A99.581,99.581,0,0,1,100,200M100,5.223A94.776,94.776,0,1,0,149.252,180.96l-20.907-26.268A61.657,61.657,0,1,1,139.893,53.114l20.676-25.978A94.657,94.657,0,0,0,100,5.223" transform="translate(0 0)" fill="#050605"/><path d="M180.3,158.844A30.247,30.247,0,1,1,210.547,128.6,30.282,30.282,0,0,1,180.3,158.844m0-55.27A25.023,25.023,0,1,0,205.323,128.6,25.05,25.05,0,0,0,180.3,103.574" transform="translate(6.05 3.965)" fill="#050605"/></g></svg>