<svg xmlns="http://www.w3.org/2000/svg" xmlns:xlink="http://www.w3.org/1999/xlink" width="250" height="200" viewBox="0 0 250 200"><defs><clipPath id="b"><rect width="250" height="200"/></clipPath></defs><g id="a" clip-path="url(#b)"><path d="M3394.8,1155.56H3282.258a15.5,15.5,0,0,0-13.176,7.358c-5.291.176-9.47.891-12.44,2.1-5.136,2.112-37.517,26.463-56.346,40.794a2.761,2.761,0,0,0,1.672,4.96,2.724,2.724,0,0,0,1.672-.572c30.763-23.394,51.881-38.748,55.1-40.079a27.952,27.952,0,0,1,8.2-1.573,15.623,15.623,0,0,0-.22,2.508v54.762l-7.6,3.443a2.766,2.766,0,1,0,2.288,5.037l9.118-4.135a.348.348,0,0,0,.11-.055l43.632-19.82a11.909,11.909,0,1,1,13.144,19.864l-45.381,30.026c-.2.11-20.2,10.966-38.594,12.385-13.738,1.056-32.149,1.353-41.894,1.43a2.772,2.772,0,0,0,.022,5.543h.022c12-.1,29.059-.429,42.268-1.452,10.856-.836,21.964-4.608,29.883-7.919,1.793,4.3,6.005,11.681,13.781,11.681a13.753,13.753,0,0,0,1.474-.088c4.63-.539,8.612-3.014,11.79-5.884a14.749,14.749,0,0,0,27.772,2.277,9.711,9.711,0,0,0,5.345,1.551,11.548,11.548,0,0,0,2.067-.187c8.392-1.463,13.341-6.83,15.574-16.894.6-2.717,1.1-5.323,1.474-7.8H3394.8a15.54,15.54,0,0,0,15.519-15.53v-68.269A15.526,15.526,0,0,0,3394.8,1155.56Zm-112.55,5.532H3394.8a9.993,9.993,0,0,1,9.987,9.987v5.455H3272.271v-5.455A9.991,9.991,0,0,1,3282.247,1161.092Zm6.126,115.211c-5.147.638-8.227-5.037-9.558-8.326,3.508-1.628,5.741-2.849,6.071-3.025l15.288-10.108c.044,0,.088.011.143.011v13.55C3297.865,1271.387,3293.488,1275.721,3288.373,1276.3Zm26.7,5.147a9.24,9.24,0,0,1-9.228-9.228v-17.345h18.456v17.345A9.234,9.234,0,0,1,3315.078,1281.451Zm31.071-19.974c-2.178,9.811-6.841,11.9-11.12,12.648a4.607,4.607,0,0,1-5.191-2.475v-16.762h17.576Q3346.919,1258.024,3346.149,1261.477Zm48.647-12.132h-86.284l21.964-14.529a17.453,17.453,0,0,0,4.927-24.175c-5.312-8.029-16.168-10.229-23.79-5.147l-39.342,17.84v-30.312h132.512v46.326A10.01,10.01,0,0,1,3394.8,1249.346Z" transform="translate(-3178.757 -1121.076)" fill="#010101"/></g></svg>