<svg xmlns="http://www.w3.org/2000/svg" width="199.989" height="200" viewBox="0 0 199.989 200"><path d="M1933.593,1633.085a2.6,2.6,0,0,0-2.568-2.158h-93.266a2.614,2.614,0,0,0-2.611,2.611v36.819a2.614,2.614,0,0,0,2.611,2.611h49.4a56.569,56.569,0,0,1-19.564,24.085,55.963,55.963,0,0,1-32.405,10.284,56.8,56.8,0,0,1-53.059-37.132,56.483,56.483,0,0,1,91.087-61.26,2.611,2.611,0,0,0,3.626-.1l26.8-27.172a2.6,2.6,0,0,0,.755-1.878,2.637,2.637,0,0,0-.82-1.856,99.944,99.944,0,0,0-157.937,117.33c0,.011,0,.011.011.022a100.066,100.066,0,0,0,187.493-24.42,101.057,101.057,0,0,0,2.029-20.125A99.791,99.791,0,0,0,1933.593,1633.085Zm-98.4-77.091a94.215,94.215,0,0,1,62.836,23.967l-23.179,23.481a61.666,61.666,0,0,0-95.694,21.344l-26.654-20.33A94.651,94.651,0,0,1,1835.19,1555.994Zm-85.141,53.146,27.053,20.643a60.871,60.871,0,0,0-.529,40.358L1749,1690.18a93.766,93.766,0,0,1-8.579-39.419A94.938,94.938,0,0,1,1750.049,1609.14Zm1.3,85.8,27.15-19.737a62.048,62.048,0,0,0,56.685,37.369,61.118,61.118,0,0,0,33.786-10.133l.766.615,25.877,20.611a94.623,94.623,0,0,1-144.265-28.725Zm176.691-25.1a93.842,93.842,0,0,1-28.434,50.318l-26.222-20.891a61.711,61.711,0,0,0,20.071-28.035,2.648,2.648,0,0,0-.335-2.385,2.6,2.6,0,0,0-2.126-1.1h-50.61v-31.585h88.443a94.678,94.678,0,0,1,1.144,14.6A96.237,96.237,0,0,1,1928.036,1669.839Z" transform="translate(-1735.19 -1550.75)" fill="#010101"/></svg>