<svg xmlns="http://www.w3.org/2000/svg" xmlns:xlink="http://www.w3.org/1999/xlink" width="179.466" height="200" viewBox="0 0 179.466 200"><defs><clipPath id="a"><rect width="179.466" height="200" fill="none"/></clipPath></defs><g clip-path="url(#a)"><path d="M34.076,54.181C17.051,54.181,3.2,42.026,3.2,27.088S17.051,0,34.076,0s30.879,12.15,30.879,27.087S51.1,54.181,34.076,54.181m0-49c-14.169,0-25.7,9.827-25.7,21.909S19.907,49,34.076,49s25.7-9.832,25.7-21.914S48.245,5.179,34.076,5.179" transform="translate(0.097 0)"/><path d="M148.954,66.881c-13.934,0-25.272-9.973-25.272-22.229S135.02,22.42,148.954,22.42s25.268,9.972,25.268,22.231-11.334,22.229-25.268,22.229m0-39.283c-11.078,0-20.093,7.652-20.093,17.054S137.876,61.7,148.954,61.7s20.088-7.647,20.088-17.051S160.032,27.6,148.954,27.6" transform="translate(3.752 0.68)"/><path d="M149.311,198.351h-7.683a22.5,22.5,0,0,1-22.476-22.476V108.087c-1.128-1.573-5.608-6.858-16.612-9.609C92.654,96,80.856,97.382,75.277,98.3v75.168c0,14.654-11.462,24.887-27.874,24.887H37.641A37.68,37.68,0,0,1,0,160.715v-85.3A21.057,21.057,0,0,1,21.036,54.377h16.6A37.471,37.471,0,0,1,63.1,64.342a2.336,2.336,0,0,1,.4.328c.121.121,12.409,12.344,30.438,16.548,13.4,3.119,30.987-.793,35.727-2.881,1.573-.692,3.148-1.566,4.753-2.456,4.27-2.354,9.107-5.029,14.893-5.029h13.061a17.114,17.114,0,0,1,17.094,17.1V168.2a30.187,30.187,0,0,1-30.155,30.155M89.612,91.887a59.148,59.148,0,0,1,14.182,1.566c15.412,3.851,20.048,12.307,20.234,12.664a2.6,2.6,0,0,1,.3,1.214v68.544a17.317,17.317,0,0,0,17.3,17.3h7.683A25,25,0,0,0,174.287,168.2V87.95a11.932,11.932,0,0,0-11.916-11.92H149.311c-4.45,0-8.485,2.23-12.389,4.386-1.747.967-3.464,1.91-5.175,2.662-6.546,2.877-25.162,6.413-38.983,3.181a74.249,74.249,0,0,1-32.586-17.6,1.99,1.99,0,0,1-.275-.226,32.341,32.341,0,0,0-22.261-8.881h-16.6A15.874,15.874,0,0,0,5.179,75.412v85.3a32.5,32.5,0,0,0,32.462,32.458H47.4c11.3,0,22.694-6.093,22.694-19.708V96.123a2.593,2.593,0,0,1,2.1-2.545,96.263,96.263,0,0,1,17.411-1.691" transform="translate(0 1.649)"/></g></svg>