<svg xmlns="http://www.w3.org/2000/svg" xmlns:xlink="http://www.w3.org/1999/xlink" width="97.046" height="100" viewBox="0 0 97.046 100"><defs><clipPath id="a"><rect width="97.046" height="100" fill="none"/></clipPath></defs><g clip-path="url(#a)"><path d="M30.59,24.374A12.187,12.187,0,1,0,18.4,12.187,12.2,12.2,0,0,0,30.59,24.374" transform="translate(17.886)"/><path d="M46.707,20.909c-.68-2.611-1.818-6.983-7.577-6.983H27.961c-6.151,0-7.02,4.22-7.661,7.318-.5,2.572-4.94,25.242-4.94,29.792,0,1.668.692,4.019,3.984,5.75a5.4,5.4,0,0,1,2.863,3.638l4.216,20.411c.211,1.946,1.7,5.628,5.829,5.628H34.84c4.129,0,5.618-3.682,5.8-5.443l4.267-20.7a5.37,5.37,0,0,1,2.82-3.615c3.307-1.751,4-4.047,4-5.666,0-4.122-4.078-25.349-4.895-29.559-.037-.2-.083-.383-.13-.568" transform="translate(14.93 13.537)"/><path d="M10.959,24.235a8.9,8.9,0,1,0-8.9-8.9,8.909,8.909,0,0,0,8.9,8.9" transform="translate(2.003 6.261)"/><path d="M22.5,22.007c-.473-1.82-1.357-5.208-5.75-5.208H9.176c-4.686,0-5.39,3.416-5.816,5.474C3.017,24.021,0,39.446,0,42.591a4.967,4.967,0,0,0,3.037,4.457,3.035,3.035,0,0,1,1.615,2.035L7.5,62.858a4.65,4.65,0,0,0,4.581,4.382H13.84a4.583,4.583,0,0,0,4.553-4.195l2.893-14.033a3.015,3.015,0,0,1,1.584-2.019c2.658-1.4,3.055-3.36,3.055-4.4,0-2.641-2.327-14.978-3.333-20.186-.03-.14-.059-.276-.093-.4" transform="translate(0 16.329)"/><path d="M47.024,24.235a8.9,8.9,0,1,0-8.9-8.9,8.909,8.909,0,0,0,8.9,8.9" transform="translate(37.06 6.261)"/><path d="M58.658,22.406c-.03-.14-.059-.278-.095-.4-.471-1.82-1.357-5.208-5.75-5.208H45.24c-4.686,0-5.388,3.416-5.814,5.474-.343,1.747-3.362,17.172-3.362,20.316A4.967,4.967,0,0,0,39.1,47.049a3.038,3.038,0,0,1,1.617,2.035l2.85,13.775a4.652,4.652,0,0,0,4.583,4.382h1.755a4.58,4.58,0,0,0,4.551-4.2l2.895-14.031a3,3,0,0,1,1.584-2.019c2.656-1.4,3.053-3.36,3.053-4.4,0-2.641-2.327-14.976-3.331-20.184" transform="translate(35.056 16.33)"/></g></svg>