<svg xmlns="http://www.w3.org/2000/svg" width="96.58" height="92.225" viewBox="0 0 96.58 92.225"><g transform="translate(0 0)"><g transform="translate(0 0)"><path d="M203.4,134.641H182.864v-2.369c0-10.031.057-20.063-.042-30.094a29.153,29.153,0,0,0-.9-7.473,10.034,10.034,0,0,0-16.057-5.266,11.658,11.658,0,0,0-4.8,9.806c.026,11.029.009,22.056.008,33.083V134.6H140.515V72.626h20.518v8.212a5.465,5.465,0,0,0,.707-.6c6-8.552,14.383-10.64,24.07-8.523,9.612,2.1,14.689,8.746,16.7,17.969a44.946,44.946,0,0,1,.962,9.083c.113,11.426.053,22.853.051,34.279,0,.459-.064.918-.115,1.593" transform="translate(-106.957 -42.416)"/><rect width="20.395" height="62.034" transform="translate(1.395 30.16)"/><path d="M134.341,77.355c-8.255.015-13.557-7.021-10.893-14.458,1.992-5.565,8.639-8.391,15.1-6.422A10.59,10.59,0,0,1,145.7,69.527c-1.243,4.792-5.634,7.817-11.361,7.828" transform="translate(-122.755 -55.849)"/></g></g></svg>