<svg xmlns="http://www.w3.org/2000/svg" width="196.257" height="200" viewBox="0 0 196.257 200"><g transform="translate(-4566.86 -1115.753)"><path d="M4761.424,1152.188l-96.808-36.273a2.707,2.707,0,0,0-1.847,0l-94.207,35.293a2.623,2.623,0,0,0-1.7,2.456v159.467a2.621,2.621,0,0,0,5.243,0V1172.817l91.585-34.312,94.187,35.293v139.334a2.621,2.621,0,0,0,5.243,0V1154.644A2.6,2.6,0,0,0,4761.424,1152.188Zm-97.726-19.1a2.827,2.827,0,0,0-.918.165l-90.657,33.972V1155.49l91.586-34.312,22.208,8.318,71.979,26.965v11.733l-93.257-34.942A2.767,2.767,0,0,0,4663.7,1133.087Z" transform="translate(0 0)" fill="#010101"/><path d="M4724.29,1194.64a2.625,2.625,0,0,0-2.621,2.621v14.53a22.947,22.947,0,0,0-18.162-8.926h-40.473a2.625,2.625,0,0,0-2.622,2.621V1231.1h-20.278a17.12,17.12,0,1,0-14.695,0h-20.278v-33.848a2.621,2.621,0,1,0-5.242,0V1310.6a2.621,2.621,0,1,0,5.242,0v-9.979h116.5v9.979a2.621,2.621,0,1,0,5.242,0V1197.251A2.608,2.608,0,0,0,4724.29,1194.64Zm-103.381,21.042a11.867,11.867,0,1,1,11.867,11.868A11.882,11.882,0,0,1,4620.909,1215.682Zm45,78.346v-22.569h37.852A17.757,17.757,0,0,1,4721.5,1289.2a16.95,16.95,0,0,1-.711,4.829Zm-.258-85.9h37.852a17.757,17.757,0,0,1,17.739,17.739,16.933,16.933,0,0,1-.712,4.829h-54.879Zm-60.494,28.234h116.5v38.44a22.963,22.963,0,0,0-17.9-8.6h-40.474a2.625,2.625,0,0,0-2.621,2.621v26.562h-20.123a17.115,17.115,0,1,0-15.531,0h-19.845Zm27.615,55.664a11.867,11.867,0,1,1,11.868-11.868A11.882,11.882,0,0,1,4632.776,1292.026Z" transform="translate(1.057 2.52)" fill="#010101"/></g></svg>