<svg xmlns="http://www.w3.org/2000/svg" width="234.83" height="146.837" viewBox="0 0 234.83 146.837"><g transform="translate(0)"><path d="M1030.308,2482.613A59.591,59.591,0,0,0,918.693,2458.3a40.764,40.764,0,0,0-72.083,26.1,40.2,40.2,0,0,0,3.186,15.745,38.409,38.409,0,0,0,14.023,74.166h148.848a47.537,47.537,0,0,0,17.642-91.695Zm-17.652,86.539H863.818a33.236,33.236,0,0,1-9.713-65.02,2.583,2.583,0,0,0,1.629-1.464,2.612,2.612,0,0,0-.072-2.186,35.193,35.193,0,0,1-3.877-16.074,35.59,35.59,0,0,1,65.175-19.787,2.634,2.634,0,0,0,2.351,1.145,2.578,2.578,0,0,0,2.145-1.495,54.421,54.421,0,0,1,103.779,20.292,2.571,2.571,0,0,0,1.712,2.31,42.378,42.378,0,0,1-14.291,82.281Z" transform="translate(-825.41 -2427.47)" fill="#010101" fill-rule="evenodd"/><path d="M986.119,2516.53H982.18v24.158h18.529l2.506-3.949h-17.1Z" transform="translate(-820.536 -2424.701)" fill="#010101" fill-rule="evenodd"/><path d="M931.626,2517.725l-14.466,22.962h4.784l4.361-6.939h9.331l2.454-3.949H928.76l5.083-7.949,11.9,18.838h4.784l-14.59-23.014A2.6,2.6,0,0,0,931.626,2517.725Z" transform="translate(-822.558 -2424.7)" fill="#010101" fill-rule="evenodd"/><path d="M960.007,2520.469H976.6l2.444-3.939-19.158.01c-6.661,0-11.053,5.4-11.053,12.074s4.392,12.074,11.053,12.074l16.209-.021,2.536-3.908H960.007c-4.5,0-7.125-3.639-7.125-8.135S955.522,2520.469,960.007,2520.469Z" transform="translate(-821.573 -2424.701)" fill="#010101" fill-rule="evenodd"/><path d="M875.6,2516.54H858.5c-6.671,0-11.053,5.4-11.053,12.074s4.392,12.074,11.053,12.074h17.1c6.671,0,11.053-5.4,11.053-12.074S882.27,2516.54,875.6,2516.54Zm0,20.209H858.5c-4.5,0-7.125-3.64-7.125-8.135s2.629-8.135,7.125-8.135h17.1c4.5,0,7.125,3.64,7.125,8.135S880.094,2536.749,875.6,2536.749Z" transform="translate(-824.725 -2424.701)" fill="#010101" fill-rule="evenodd"/><path d="M1014.8,2520.469h16.59l2.444-3.939-19.158.01c-6.671,0-11.053,5.4-11.053,12.074s4.382,12.074,11.053,12.074l16.209-.021,2.536-3.908H1014.8c-3.836,0-6.29-2.65-6.939-6.228h20.9l2.516-3.949h-23.406C1008.538,2523.077,1011.013,2520.469,1014.8,2520.469Z" transform="translate(-819.87 -2424.701)" fill="#010101" fill-rule="evenodd"/><path d="M908.637,2530.872a7.167,7.167,0,0,0,0-14.332l-20.117-.01v24.158h4.423v-20.209h15.693a3.232,3.232,0,0,1,0,6.465h-12.59l14.2,13.713h5.712l-10.167-9.775Z" transform="translate(-823.448 -2424.701)" fill="#010101" fill-rule="evenodd"/></g></svg>