<svg xmlns="http://www.w3.org/2000/svg" xmlns:xlink="http://www.w3.org/1999/xlink" width="164.394" height="200" viewBox="0 0 164.394 200"><defs><clipPath id="a"><rect width="164.394" height="200" fill="none"/></clipPath></defs><g clip-path="url(#a)"><path d="M90.748,140.433a9.815,9.815,0,0,1-2.193-.2,2.6,2.6,0,0,1-1.9-1.846c-.326-1.186-7.735-29.118,9.964-37.831,14.145-6.952,27.056,3.072,31.9,9.357a2.624,2.624,0,0,1,.506,2.034c-.085.489-2.225,12.079-17.425,21.1-10.735,6.373-17.581,7.385-20.845,7.385m15.86-37.052a17.223,17.223,0,0,0-7.686,1.854c-11.663,5.742-8.884,24.1-7.661,29.961,2.572-.123,8.392-1.125,17.666-6.631,10.555-6.267,13.779-13.644,14.659-16.411-2.2-2.461-8.652-8.773-16.978-8.773" transform="translate(2.514 2.91)" fill="#1a1718"/><path d="M95.023,198.041H76.554a2.61,2.61,0,0,1-2.563-2.119c-.575-3.032-14.152-74.389-14.617-89.545C58.9,90.936,69.4,71.7,87.2,67.536,97.228,65.18,126.63,63.367,142.19,82.8c8.225,10.274,12,24.31,10.347,38.5-1.886,16.252-10.313,30.984-23.725,41.49-12.617,9.882-24.558,11.231-30.129,11.231-.123,0-.241,0-.358,0l-.693,21.5a2.613,2.613,0,0,1-2.608,2.523m-16.308-5.216H92.5l.7-21.652a2.608,2.608,0,0,1,.937-1.915,2.568,2.568,0,0,1,2.046-.579c.134.016,14.291,1.85,29.411-9.993a56.433,56.433,0,0,0,21.766-37.981c1.487-12.824-1.879-25.449-9.244-34.643-13.872-17.34-40.606-15.571-49.73-13.448-14.748,3.447-24.211,20.16-23.795,33.6.4,13.326,11.823,74.405,14.126,86.607" transform="translate(1.759 1.959)" fill="#1a1718"/><path d="M139.72,68.681c-5.856,0-10.653-1.715-14.275-5.118-4.316-4.055-6.627-10.307-6.683-18.078,0-21.309,10.632-31.692,15.2-35.165,5.1-3.88,10.653-5.51,14.842-4.336,8.012,2.229,12.07,12.568,12.07,30.731,0,19.313-7.254,31.244-19.406,31.918-.59.032-1.177.048-1.748.048m6.248-57.844c-2.123,0-5.285.925-8.848,3.635-3.953,3-13.142,12.038-13.142,30.993.044,6.292,1.788,11.244,5.041,14.3,2.893,2.714,6.956,3.949,12.16,3.663,13.437-.741,14.48-20.633,14.48-26.709,0-15.094-2.93-24.223-8.248-25.7a5.348,5.348,0,0,0-1.443-.175" transform="translate(3.519 0.166)" fill="#1a1718"/><path d="M37.643,110.346c-5.583,0-12.951-2.054-21.79-9.116C6.574,93.764.824,84.72.082,76.416A17.862,17.862,0,0,1,4.414,62.784c3.382-3.908,9.972-4.841,18.558-2.616,14.321,3.7,31.416,15.457,34.07,27.984,0,.025.008.044.012.065,1.377,7.385-2.372,15.364-9.112,19.411a19.957,19.957,0,0,1-10.3,2.718M14.582,64.2c-2.893,0-5.078.676-6.231,2a12.628,12.628,0,0,0-3.077,9.753c.612,6.8,5.787,14.728,13.843,21.207,13.481,10.775,22.169,8.382,26.138,5.995,4.826-2.893,7.63-8.754,6.676-13.949-2.193-10.232-17.41-20.662-30.267-23.987A28.964,28.964,0,0,0,14.582,64.2" transform="translate(0 1.748)" fill="#1a1718"/><path d="M101.153,62.119c-8.64,0-18.949-4.67-23.709-18.978C74.286,33.653,72.74,15.29,79.461,6A14.171,14.171,0,0,1,91.4,0h.061c10.257.036,22.023,18.922,25.3,35.14,2.633,13.017-.493,22.446-8.561,25.882a22.569,22.569,0,0,1-7.043,1.1m-9.76-56.9a8.918,8.918,0,0,0-7.706,3.847c-5.33,7.368-4.154,23.852-1.3,32.431,5.355,16.077,18.029,16.61,23.963,14.65,7.445-3.174,6.524-13.879,5.293-19.969C108.431,20.254,97.539,5.237,91.441,5.216Z" transform="translate(2.215)" fill="#1a1718"/><path d="M60,74C43.25,74,36.252,60.038,33.828,55.2c-3.81-7.609-8.089-21.994-4.259-30.459A10.756,10.756,0,0,1,36.8,18.556h0c12.926-3.366,34.614,12.091,40.079,25.555,3.794,9.349,4.21,16.7,1.226,21.844-2.453,4.234-7.062,6.834-13.7,7.735A32.982,32.982,0,0,1,60,74M38.132,23.6h0a5.481,5.481,0,0,0-3.811,3.293c-2.893,6.394.7,19.036,4.169,25.967,6.194,12.36,13.987,17.169,25.222,15.661,4.96-.672,8.284-2.417,9.887-5.183,2.135-3.68,1.613-9.487-1.544-17.263-4.845-11.924-24.5-25-33.922-22.475" transform="translate(0.832 0.536)" fill="#1a1718"/></g></svg>