<svg xmlns="http://www.w3.org/2000/svg" width="220.046" height="200" viewBox="0 0 220.046 200"><g transform="translate(-1753.41 -1981.5)"><path d="M1870.619,2090.792a43.134,43.134,0,0,0-30.351-22.914,29.771,29.771,0,0,0-27.138,8.777c-7.7,8.743-5.53,20.132-5.439,20.609a2.912,2.912,0,0,0,.579,1.227c12.933,16.089,29.318,24.946,46.156,24.946a51.136,51.136,0,0,0,24.049-6.166,2.852,2.852,0,0,0,1.34-3.52C1876.785,2105.587,1873.651,2097.128,1870.619,2090.792Zm-16.192,26.944c-14.863,0-29.476-7.88-41.217-22.221-.261-2.191-.715-9.5,4.088-14.954a24.243,24.243,0,0,1,22.005-7.051c10.708,1.817,21.472,9.935,26.161,19.734,2.623,5.5,5.394,12.8,8.1,20.086A44.562,44.562,0,0,1,1854.427,2117.736Z" transform="translate(7.306 11.635)" fill="#010101"/><path d="M1973.224,2160.846l-3.429-8.005a2.865,2.865,0,0,0-3.463-1.613c-.125.046-12.479,3.8-19.859,2.623-7.062-1.113-14.409-3.724-26.6-23.163-.818-1.294-1.635-2.589-2.464-3.884,32.531-21.392,52.617-60.077,52.617-101.715a128.137,128.137,0,0,0-6.892-41.66,2.874,2.874,0,0,0-2.7-1.93h-34.813a2.866,2.866,0,0,0-2.759,3.634,150.662,150.662,0,0,1,5.564,41.081c0,31.089-9.3,60.8-25.026,80.368-9.515-12.433-18.428-21.074-27.864-27.047-18.724-11.854-38.106-13.921-53.185-5.7-8.028,4.383-12.308,9.106-14.591,12.8-8.232-17.543-12.729-38.731-12.729-60.418a150.664,150.664,0,0,1,5.552-41.081,2.866,2.866,0,0,0-2.759-3.634H1763a2.859,2.859,0,0,0-2.7,1.93,128.134,128.134,0,0,0-6.892,41.66c0,65.391,48.587,118.6,108.3,118.6a99.877,99.877,0,0,0,24.991-3.179c4.326,11.094,9.05,21.8,14.364,27.41a42.594,42.594,0,0,0,30.9,13.58,41.372,41.372,0,0,0,7.721-.738c12.32-2.373,31.713-15.885,32.531-16.464A2.806,2.806,0,0,0,1973.224,2160.846Zm-34.6,14.329a36.5,36.5,0,0,1-33.383-11.162c-5.03-5.314-9.958-17.1-14.114-27.944a2.868,2.868,0,0,0-2.668-1.84,2.667,2.667,0,0,0-.783.114,94.265,94.265,0,0,1-25.945,3.645c-56.569,0-102.578-50.642-102.578-112.888a122.676,122.676,0,0,1,5.938-37.879h29.022a157.559,157.559,0,0,0-4.792,38.992c0,24.935,5.745,49.313,16.192,68.628a2.852,2.852,0,0,0,3.043,1.43,2.9,2.9,0,0,0,2.317-2.464c.011-.08,1.135-7.812,14.239-14.954,13.4-7.312,30.226-5.359,47.394,5.519,9.4,5.95,18.724,15.272,28.489,28.5a2.866,2.866,0,0,0,4.451.193c18.247-20.779,28.727-52.436,28.727-86.84a157.568,157.568,0,0,0-4.792-38.992h29.022a122.733,122.733,0,0,1,5.938,37.879c0,40.707-20.063,78.415-52.367,98.422a2.878,2.878,0,0,0-1.283,1.794,2.838,2.838,0,0,0,.386,2.18q2.01,3.1,3.985,6.234c12.206,19.439,20.438,24.174,30.544,25.764,6.552,1.033,15.624-.977,19.95-2.112l1.51,3.531C1961.915,2164.355,1947.665,2173.427,1938.627,2175.176Z" transform="translate(0 0)" fill="#010101"/></g></svg>