<svg xmlns="http://www.w3.org/2000/svg" xmlns:xlink="http://www.w3.org/1999/xlink" width="102.013" height="100" viewBox="0 0 102.013 100"><defs><clipPath id="a"><rect width="102.013" height="100" fill="none"/></clipPath></defs><g transform="translate(0 0)"><g transform="translate(0 0)" clip-path="url(#a)"><path d="M58.181,42.878,20.951,5.647a3.954,3.954,0,0,0-5.592,0L5.281,15.726a3.954,3.954,0,0,0,0,5.592L29.636,45.674,5.281,70.027a3.956,3.956,0,0,0,0,5.594L15.359,85.7a3.953,3.953,0,0,0,5.592,0l37.23-37.23a3.954,3.954,0,0,0,0-5.592" transform="translate(4.029 4.387)"/><path d="M43.367,28.528a2.965,2.965,0,0,0-4.194,0L29.136,38.565a2.965,2.965,0,0,0,0,4.194L53,66.626a2.969,2.969,0,0,0,4.2,0L67.236,56.587a2.967,2.967,0,0,0,0-4.194ZM55.1,60.334,35.428,40.663l5.843-5.843L60.944,54.491Z" transform="translate(27.627 27.032)"/><path d="M29.136,31.76,39.173,41.8a2.967,2.967,0,0,0,4.194,0L67.236,17.934a2.967,2.967,0,0,0,0-4.194L57.2,3.7a2.967,2.967,0,0,0-4.2,0L29.136,27.566a2.965,2.965,0,0,0,0,4.194M55.1,9.991l5.845,5.845L41.271,35.507l-5.843-5.845Z" transform="translate(27.627 2.765)"/><path d="M30.886,18.54a9.27,9.27,0,1,0-9.27-9.27,9.28,9.28,0,0,0,9.27,9.27m0-12.608A3.338,3.338,0,1,1,27.548,9.27a3.342,3.342,0,0,1,3.338-3.338" transform="translate(21.127 -0.001)"/><path d="M30.886,41.2a9.27,9.27,0,1,0,9.27,9.27,9.28,9.28,0,0,0-9.27-9.27m0,12.608a3.338,3.338,0,1,1,3.338-3.338A3.342,3.342,0,0,1,30.886,53.8" transform="translate(21.127 40.264)"/><path d="M18.54,29.868a9.27,9.27,0,1,0-9.268,9.27,9.28,9.28,0,0,0,9.268-9.27" transform="translate(0 20.131)"/><path d="M51.482,20.6a9.271,9.271,0,1,0,9.27,9.272,9.28,9.28,0,0,0-9.27-9.272m0,12.61A3.339,3.339,0,1,1,54.82,29.87a3.341,3.341,0,0,1-3.338,3.338" transform="translate(41.259 20.131)"/></g></g></svg>