<svg xmlns="http://www.w3.org/2000/svg" xmlns:xlink="http://www.w3.org/1999/xlink" width="103.683" height="100" viewBox="0 0 103.683 100"><defs><clipPath id="a"><rect width="103.683" height="100" fill="none"/></clipPath></defs><g transform="translate(0 0)"><g transform="translate(0 0)" clip-path="url(#a)"><path d="M100.527,81.575,81.9,62.943l1.294-1.294a3.932,3.932,0,0,0-5.56-5.56l-3.523,3.523a3.9,3.9,0,0,0-.608.5,4.025,4.025,0,0,0-.5.608L71.818,61.9l-9.4-9.4,2.69-2.69A25.786,25.786,0,0,0,97.25,13.762a3.932,3.932,0,0,0-6.258-.948l-11.706,11.7-4.39.515.515-4.39,11.6-11.6a3.931,3.931,0,0,0-1.016-6.3A25.761,25.761,0,0,0,50.26,34.672l-2.837,2.835L32.13,22.215l1.943-1.944a3.933,3.933,0,0,0,0-5.562L21.044,1.681a3.933,3.933,0,0,0-5.56,0l-9.41,9.41a3.93,3.93,0,0,0,0,5.56L19.1,29.682a3.935,3.935,0,0,0,5.56,0l1.907-1.907L41.863,43.067,3.1,81.829a10.605,10.605,0,0,0,15,15L56.862,58.067l9.394,9.394-1.864,1.864a3.982,3.982,0,0,0-.6.5,3.867,3.867,0,0,0-.5.6L59.77,73.949a3.932,3.932,0,1,0,5.56,5.56l1.294-1.294L85.257,96.846a10.8,10.8,0,0,0,15.271-15.271m-86.113-67.7,3.85-3.85,7.469,7.467-3.85,3.85Zm-1.876,77.4a2.824,2.824,0,0,1-3.875,0,2.758,2.758,0,0,1,0-3.877L57.707,38.345a3.935,3.935,0,0,0,.735-4.544A17.891,17.891,0,0,1,76.893,8.039l-8.01,8.01a3.938,3.938,0,0,0-1.125,2.322L66.5,29.061a3.933,3.933,0,0,0,4.363,4.363l10.692-1.252a3.926,3.926,0,0,0,2.322-1.125l8.242-8.24A17.931,17.931,0,0,1,66.093,41.628a3.925,3.925,0,0,0-4.612.7Zm82.429.018a2.938,2.938,0,0,1-4.15,0L72.184,72.655l2.41-2.412,0,0,0,0L76.334,68.5,94.967,87.135a2.938,2.938,0,0,1,0,4.15" transform="translate(0 0)"/></g></g></svg>