<svg xmlns="http://www.w3.org/2000/svg" xmlns:xlink="http://www.w3.org/1999/xlink" width="242.318" height="200" viewBox="0 0 242.318 200"><defs><clipPath id="a"><rect width="242.318" height="200" fill="none"/></clipPath></defs><g clip-path="url(#a)"><path d="M193.673,106.894H179.089a2.606,2.606,0,0,1-2.6-2.6V92.514a2.606,2.606,0,0,1,2.6-2.6h14.584a3.587,3.587,0,0,0,0-7.174H179.089a2.606,2.606,0,0,1-2.6-2.6V68.356a2.606,2.606,0,0,1,2.6-2.6h14.584a20.571,20.571,0,0,1,0,41.142m-11.979-5.208h11.979a15.363,15.363,0,0,0,0-30.725H181.693v6.567h11.979a8.8,8.8,0,0,1,0,17.591H181.693Z" transform="translate(4.525 1.686)" fill="#050605"/><path d="M95.763,108.807H53.711a2.6,2.6,0,0,1-2.258-3.9L59.069,91.64a2.6,2.6,0,0,1,2.258-1.306H81.385V66.884a2.606,2.606,0,0,1,2.6-2.6H95.763a2.607,2.607,0,0,1,2.605,2.6V106.2a2.607,2.607,0,0,1-2.605,2.6M58.207,103.6H93.159V69.488H86.592v23.45a2.607,2.607,0,0,1-2.6,2.6H62.834Z" transform="translate(1.31 1.648)" fill="#050605"/><path d="M117.564,130.447H106.277a2.606,2.606,0,0,1-2.6-2.6V116.063a2.606,2.606,0,0,1,2.6-2.6h11.775a15.487,15.487,0,0,0-.069-30.961H106.277a2.606,2.606,0,0,1-2.6-2.6V68.109a2.606,2.606,0,0,1,2.6-2.6h11.287a32.471,32.471,0,0,1,0,64.942m-8.683-5.208h8.683a27.263,27.263,0,0,0,0-54.525h-8.683V77.29h9.171a20.7,20.7,0,0,1,.07,41.377h-9.241Z" transform="translate(2.658 1.68)" fill="#050605"/><path d="M118.771,155.011H85.3a2.606,2.606,0,0,1-2.6-2.6V131.029H57.663L44.653,153.681a2.608,2.608,0,0,1-2.257,1.307H2.6a2.6,2.6,0,0,1-2.257-3.9L61.768,44.123a2.608,2.608,0,0,1,2.258-1.307H84.945a2.667,2.667,0,0,1,.355-.024h33.472a55.6,55.6,0,0,1,40.145,16.9V45.4a2.606,2.606,0,0,1,2.6-2.6H198.2a44.118,44.118,0,0,1,.573,88.232v21.359a2.606,2.606,0,0,1-2.6,2.6H161.52a2.606,2.606,0,0,1-2.6-2.6V138.109a55.6,55.6,0,0,1-40.145,16.9M87.9,149.8h30.868a50.532,50.532,0,0,0,40.67-20.3,2.6,2.6,0,0,1,4.683,1.566V149.78h29.439V128.425a2.607,2.607,0,0,1,2.6-2.6H198.2A38.91,38.91,0,1,0,198.2,48H164.124V66.73a2.6,2.6,0,0,1-4.683,1.567A50.53,50.53,0,0,0,118.771,48H85.653a2.478,2.478,0,0,1-.354.025H65.536L7.1,149.78H40.886l13.008-22.652a2.608,2.608,0,0,1,2.258-1.307H85.3a2.607,2.607,0,0,1,2.6,2.6Zm30.868-6.567h-21.7a2.606,2.606,0,0,1-2.6-2.6v-20.6H50.395L37.838,141.906a2.61,2.61,0,0,1-2.258,1.306H22.946a2.6,2.6,0,0,1-2.258-3.9L68.584,55.9a2.61,2.61,0,0,1,2.258-1.306H96.721a2.479,2.479,0,0,1,.354-.025h21.7a44.092,44.092,0,0,1,43.31,35.087h8.61V57.172a2.607,2.607,0,0,1,2.6-2.6h24.9a32.345,32.345,0,1,1,0,64.689H187v21.35a2.606,2.606,0,0,1-2.6,2.6H173.3a2.606,2.606,0,0,1-2.6-2.6V118.924H158.273a44.5,44.5,0,0,1-39.5,24.312m-19.092-5.208h19.092a39.269,39.269,0,0,0,35.506-22.8,2.6,2.6,0,0,1,2.364-1.514H173.3a2.607,2.607,0,0,1,2.6,2.605V138h5.892v-21.35a2.606,2.606,0,0,1,2.6-2.6h13.8a27.136,27.136,0,1,0,0-54.273H175.9V92.26a2.606,2.606,0,0,1-2.6,2.6H159.917a2.607,2.607,0,0,1-2.572-2.189,38.919,38.919,0,0,0-38.573-32.9H97.429a2.479,2.479,0,0,1-.354.025H72.352L27.446,138H34.07l12.562-21.871a2.609,2.609,0,0,1,2.257-1.306H97.075a2.606,2.606,0,0,1,2.6,2.6Z" transform="translate(0 1.097)" fill="#050605"/></g></svg>