<svg xmlns="http://www.w3.org/2000/svg" xmlns:xlink="http://www.w3.org/1999/xlink" width="202.93" height="200" viewBox="0 0 202.93 200"><defs><clipPath id="a"><rect width="202.93" height="200" fill="none"/></clipPath></defs><g clip-path="url(#a)"><path d="M160.89,11.271H134.56V2.605A2.607,2.607,0,0,0,131.955,0H109.948a2.608,2.608,0,0,0-2.605,2.605v8.666H55.285V2.605A2.608,2.608,0,0,0,52.68,0h-22a2.608,2.608,0,0,0-2.605,2.605v8.666H2.605A2.607,2.607,0,0,0,0,13.875V163.19a2.607,2.607,0,0,0,2.605,2.6H111.832a2.6,2.6,0,1,0,0-5.209H85.352V128.121h35.657a2.6,2.6,0,0,0,3.155-2.544V89.308h34.121v19.476a2.6,2.6,0,1,0,5.209,0V13.875a2.607,2.607,0,0,0-2.6-2.6M112.553,5.21h16.8V26.883H112.569V13.875c0-.054-.013-.107-.016-.161ZM33.282,13.875V5.21H50.075v8.544c0,.041-.012.08-.012.121V26.883H33.282ZM5.209,16.48H28.072V29.5a2.608,2.608,0,0,0,2.605,2.605H52.668a2.63,2.63,0,0,0,2.617-2.617V16.48h52.057V29.488a2.635,2.635,0,0,0,2.622,2.617h21.991A2.607,2.607,0,0,0,134.56,29.5V16.48h23.725V49.465H5.209Zm36.123,144.1H5.209V128.121H41.332Zm0-37.674H5.209v-33.6H41.332Zm0-38.813H5.209V54.674H41.332Zm38.809,76.487h-33.6V128.121h33.6Zm0-37.674h-33.6v-33.6h33.6Zm0-38.813h-33.6V54.674h33.6Zm38.813,38.813h-33.6v-33.6h33.6Zm0-38.813h-33.6V54.674h33.6Zm39.33,0h-34.12V54.674h34.12Z" fill="#050605"/><path d="M159.279,197.03a40.608,40.608,0,1,1,40.608-40.608,40.652,40.652,0,0,1-40.608,40.608m0-76.006a35.4,35.4,0,1,0,35.4,35.4,35.435,35.435,0,0,0-35.4-35.4" transform="translate(3.043 2.97)" fill="#050605"/><path d="M153.7,174.1a2.607,2.607,0,0,1-1.844-.765l-10.2-10.2a2.608,2.608,0,0,1,3.688-3.687l8.091,8.1,19.406-25.479a2.6,2.6,0,1,1,4.144,3.158l-21.213,27.852a2.618,2.618,0,0,1-1.9,1.022c-.057,0-.118,0-.175,0" transform="translate(3.613 3.616)" fill="#050605"/></g></svg>