<svg xmlns="http://www.w3.org/2000/svg" xmlns:xlink="http://www.w3.org/1999/xlink" width="200" height="200" viewBox="0 0 200 200"><defs><clipPath id="a"><rect width="200" height="200" fill="none"/></clipPath></defs><g clip-path="url(#a)"><path d="M97.5,28.973A29.314,29.314,0,0,0,126.439,4.2a100.21,100.21,0,0,0-57.867.129A29.315,29.315,0,0,0,97.5,28.973" transform="translate(2.267 0)"/><path d="M145.528,49.234a29.313,29.313,0,0,0,37.988,2.946A100.444,100.444,0,0,0,142.5,11.365a29.315,29.315,0,0,0,3.033,37.869" transform="translate(4.527 0.376)"/><path d="M165.205,97.5a29.313,29.313,0,0,0,25.116,29,100.242,100.242,0,0,0-.129-57.972A29.314,29.314,0,0,0,165.205,97.5" transform="translate(5.461 2.265)"/><path d="M145.4,145.145a29.317,29.317,0,0,0-2.607,38.449,100.438,100.438,0,0,0,40.963-41.125,29.315,29.315,0,0,0-38.355,2.676" transform="translate(4.523 4.515)"/><path d="M97.494,164.949A29.315,29.315,0,0,0,68.48,190.188a100.25,100.25,0,0,0,58.05.131,29.317,29.317,0,0,0-29.035-25.37" transform="translate(2.264 5.453)"/><path d="M49.57,145.145A29.313,29.313,0,0,0,11.311,142.4a100.438,100.438,0,0,0,40.9,41.146,29.313,29.313,0,0,0-2.642-38.4" transform="translate(0.374 4.515)"/><path d="M28.973,97.423A29.314,29.314,0,0,0,4.353,68.5a100.214,100.214,0,0,0-.17,57.867,29.314,29.314,0,0,0,24.79-28.946" transform="translate(0 2.265)"/><path d="M49.233,49.562a29.313,29.313,0,0,0,2.946-37.988A100.444,100.444,0,0,0,11.364,52.595a29.315,29.315,0,0,0,37.869-3.033" transform="translate(0.376 0.383)"/><path d="M105.825,44.3a8.972,8.972,0,1,1-8.972-8.972,8.972,8.972,0,0,1,8.972,8.972" transform="translate(2.905 1.168)"/><path d="M140.592,65.939a8.973,8.973,0,1,1,0-12.689,8.972,8.972,0,0,1,0,12.689" transform="translate(4.141 1.673)"/><path d="M148.754,105.825a8.972,8.972,0,1,1,8.972-8.972,8.972,8.972,0,0,1-8.972,8.972" transform="translate(4.621 2.905)"/><path d="M126.89,140.209a8.973,8.973,0,1,1,12.689,0,8.972,8.972,0,0,1-12.689,0" transform="translate(4.108 4.129)"/><path d="M87.881,149.27a8.972,8.972,0,1,1,8.972,8.972,8.972,8.972,0,0,1-8.972-8.972" transform="translate(2.905 4.638)"/><path d="M53.581,127.52a8.973,8.973,0,1,1,0,12.689,8.972,8.972,0,0,1,0-12.689" transform="translate(1.684 4.129)"/><path d="M44.3,87.813a8.972,8.972,0,1,1-8.972,8.972A8.972,8.972,0,0,1,44.3,87.813" transform="translate(1.168 2.903)"/><path d="M65.939,53.582a8.973,8.973,0,1,1-12.689,0,8.972,8.972,0,0,1,12.689,0" transform="translate(1.673 1.684)"/></g></svg>