<svg xmlns="http://www.w3.org/2000/svg" xmlns:xlink="http://www.w3.org/1999/xlink" width="146.379" height="200" viewBox="0 0 146.379 200"><defs><clipPath id="a"><rect width="146.379" height="200" fill="none"/></clipPath></defs><g clip-path="url(#a)"><path d="M84.012,200C37.686,200,0,155.141,0,100S37.686,0,84.012,0a74.23,74.23,0,0,1,44.7,15.334l6.673-10.323a2.6,2.6,0,0,1,2.183-1.187h6.206a2.6,2.6,0,0,1,2.6,2.6V57.083a2.6,2.6,0,0,1-2.6,2.6h-5.544a2.607,2.607,0,0,1-2.5-1.89,86.217,86.217,0,0,0-10.547-21.835c-1.369-2.028-2.711-3.825-4.088-5.487C111.07,18.369,98.91,12.456,84.97,12.847c-23.291,0-32.183,13.366-38.331,27.81-7.413,18.243-7.763,84.438-2.382,113.834,4.3,19.711,17.906,30.171,39.328,30.171H83.7c14.554,0,26.734-5.478,36.511-16.284a63.572,63.572,0,0,0,4.995-6.3,76.174,76.174,0,0,0,10.506-22.092l.382-1.524a2.6,2.6,0,0,1,2.524-1.971h5.162a2.6,2.6,0,0,1,2.6,2.6v54.86a2.6,2.6,0,0,1-2.6,2.6h-6.222a2.6,2.6,0,0,1-2.182-1.187L128.537,184.8A74.266,74.266,0,0,1,84.012,200m0-194.8C40.554,5.2,5.2,47.728,5.2,100s35.353,94.8,78.81,94.8c14.793,0,29.237-4.991,41.763-14.428l.361-.272c.479-.366.959-.728,1.431-1.105a2.665,2.665,0,0,1,2.044-.537,2.6,2.6,0,0,1,1.764,1.155l7.6,11.74h2.207V141.693h-.537a81.19,81.19,0,0,1-11.168,23.36,68.683,68.683,0,0,1-5.4,6.811c-10.806,11.945-24.288,18-40.06,18h-.126c-24.124,0-39.9-12.2-44.729-34.354-5.632-30.756-5.173-97.529,2.679-116.853C48.374,23.3,58.587,7.645,84.9,7.645,100.471,7.133,114,13.76,125.1,27.152c1.487,1.792,2.926,3.722,4.393,5.893a92.314,92.314,0,0,1,10.644,21.437h1.041V9.026h-2.191l-7.432,11.5a2.6,2.6,0,0,1-1.769,1.154,2.655,2.655,0,0,1-2.044-.54c-.52-.419-1.053-.817-1.581-1.215l-.386-.293C113.253,10.193,98.813,5.2,84.012,5.2" fill="#050605"/></g></svg>