<svg xmlns="http://www.w3.org/2000/svg" xmlns:xlink="http://www.w3.org/1999/xlink" width="200" height="200" viewBox="0 0 200 200"><defs><clipPath id="a"><rect width="200" height="200" fill="none"/></clipPath></defs><g clip-path="url(#a)"><path d="M100,200A100,100,0,1,1,200,100,100.112,100.112,0,0,1,100,200M100,5.211A94.789,94.789,0,1,0,194.789,100,94.9,94.9,0,0,0,100,5.211" fill="#050605"/><path d="M98.011,69.424a20.377,20.377,0,1,1,20.377-20.377A20.4,20.4,0,0,1,98.011,69.424m0-35.544a15.166,15.166,0,1,0,15.166,15.166A15.183,15.183,0,0,0,98.011,33.88" transform="translate(1.991 0.735)" fill="#050605"/><path d="M121.389,171.4h-.509c-24.571-.221-44.542-20.8-44.542-45.885V99a5.57,5.57,0,0,0-5.565-5.566H65.814a2.608,2.608,0,0,1-2.459-3.469C67.028,79.507,77.361,73.51,91.7,73.51c15.243,0,32.29,13.81,32.29,32.29v62.993a2.609,2.609,0,0,1-2.606,2.606M69.93,88.224h.843A10.787,10.787,0,0,1,81.55,99v26.513c0,21.5,16.514,39.281,37.234,40.6V105.8c0-15.5-14.3-27.079-27.079-27.079-10.37,0-17.944,3.343-21.774,9.5" transform="translate(1.621 1.885)" fill="#050605"/></g></svg>