<svg xmlns="http://www.w3.org/2000/svg" xmlns:xlink="http://www.w3.org/1999/xlink" width="200" height="200" viewBox="0 0 200 200"><defs><clipPath id="a"><rect width="200" height="200" fill="none"/></clipPath></defs><g clip-path="url(#a)"><path d="M185.2,200H14.793A14.809,14.809,0,0,1,0,185.207V14.8A14.812,14.812,0,0,1,14.793,0H185.2A14.816,14.816,0,0,1,200,14.8V185.207A14.812,14.812,0,0,1,185.2,200M14.793,5.214A9.594,9.594,0,0,0,5.214,14.8V185.207a9.59,9.59,0,0,0,9.58,9.58H185.2a9.593,9.593,0,0,0,9.584-9.58V14.8A9.6,9.6,0,0,0,185.2,5.214Z" fill="#050605"/><path d="M170.574,164.91H136.8v-50.7c0-5.9-1.564-10.74-4.529-14a12.839,12.839,0,0,0-9.617-4.268c-7.531,0-15.16,6.277-15.16,18.271v50.7H73.834V68.09h33.66v7.286c8.692-8.451,23.367-12.3,36.8-8.9C161,70.7,170.574,84.483,170.574,104.3ZM142.018,159.7H165.36V104.3c0-17.238-8.142-29.184-22.341-32.772-14.059-3.563-30.124,2.167-35.839,12.745l-4.9,9.071V73.3H79.048V159.7h23.237V114.212c0-15.253,10.5-23.485,20.373-23.485A18,18,0,0,1,136.136,96.7c3.85,4.241,5.882,10.293,5.882,17.51ZM61.795,164.91H27.952V68.089H61.795ZM33.165,159.7H56.581V73.3H33.165Zm11.71-97.843A16.922,16.922,0,1,1,61.681,44.93,16.886,16.886,0,0,1,44.875,61.854m0-28.63A11.709,11.709,0,1,0,56.467,44.93,11.664,11.664,0,0,0,44.875,33.224" transform="translate(0.736 0.737)" fill="#050605"/></g></svg>