<svg xmlns="http://www.w3.org/2000/svg" xmlns:xlink="http://www.w3.org/1999/xlink" width="200" height="177.123" viewBox="0 0 200 177.123"><defs><clipPath id="a"><rect width="200" height="177.123" fill="none"/></clipPath></defs><g clip-path="url(#a)"><path d="M98.668,149.538a50.657,50.657,0,1,1,50.66-50.66,50.715,50.715,0,0,1-50.66,50.66m0-96.1a45.439,45.439,0,1,0,45.44,45.436,45.486,45.486,0,0,0-45.44-45.436" transform="translate(1.331 1.336)" fill="#050605"/><path d="M107.151,124.172H88.856a2.611,2.611,0,0,1-2.609-2.609v-11.6H74.655a2.612,2.612,0,0,1-2.609-2.609V89.067a2.611,2.611,0,0,1,2.609-2.609H86.247V74.866a2.611,2.611,0,0,1,2.609-2.609h18.294a2.611,2.611,0,0,1,2.609,2.609V86.458h11.592a2.611,2.611,0,0,1,2.609,2.609v18.29a2.612,2.612,0,0,1-2.609,2.609H109.76v11.6a2.611,2.611,0,0,1-2.609,2.609m-15.685-5.219h13.076v-11.6a2.612,2.612,0,0,1,2.609-2.609h11.592V91.677H107.151a2.612,2.612,0,0,1-2.609-2.609V77.476H91.466V89.067a2.612,2.612,0,0,1-2.609,2.609H77.265v13.071H88.856a2.612,2.612,0,0,1,2.609,2.609Z" transform="translate(1.997 2.002)" fill="#050605"/><path d="M191.335,23.306H132.049V8.75A8.76,8.76,0,0,0,123.3,0H77.112a8.76,8.76,0,0,0-8.75,8.749V23.306H8.66A8.67,8.67,0,0,0,0,31.969V168.463a8.67,8.67,0,0,0,8.66,8.661H191.335A8.672,8.672,0,0,0,200,168.463V31.969a8.672,8.672,0,0,0-8.665-8.663M172.1,171.88H28.614V28.549H172.1ZM73.6,8.75a3.52,3.52,0,0,1,3.515-3.515H123.3a3.52,3.52,0,0,1,3.515,3.515V23.306H73.6ZM5.243,168.463V31.969a3.421,3.421,0,0,1,3.416-3.42H23.378V171.88H8.66a3.421,3.421,0,0,1-3.416-3.417m189.513,0a3.422,3.422,0,0,1-3.421,3.417h-14V28.549h14a3.423,3.423,0,0,1,3.421,3.42Z" transform="translate(0 0)" fill="#050605"/></g></svg>