<svg id="pawprint-icon-outlined" xmlns="http://www.w3.org/2000/svg" xmlns:xlink="http://www.w3.org/1999/xlink" width="227.538" height="200" viewBox="0 0 227.538 200">
  <defs>
    <clipPath id="clip-path">
      <rect id="Rectangle_55" data-name="Rectangle 55" width="227.538" height="200" fill="none"/>
    </clipPath>
  </defs>
  <g id="Group_53" data-name="Group 53" clip-path="url(#clip-path)">
    <path id="Path_274" data-name="Path 274" d="M193.1,79.621c-1.619-4.641-4.775-7.931-8.9-9.293s-8.632-.578-12.686,2.186a20.679,20.679,0,0,0-5.064,4.971,24.281,24.281,0,0,0-3.393,6.683c-3.4,10.345.547,20.968,8.8,23.68a13.033,13.033,0,0,0,4.064.65,15.263,15.263,0,0,0,8.612-2.836A23.6,23.6,0,0,0,193.1,79.621m-5.074,12.758a17.331,17.331,0,0,1-6.436,8.973,9.186,9.186,0,0,1-8.106,1.537c-5.518-1.815-7.962-9.478-5.466-17.09a17.319,17.319,0,0,1,6.436-8.963,8.515,8.515,0,0,1,13.717,4.507,17.231,17.231,0,0,1-.144,11.036" transform="translate(5.075 2.185)" fill="#050605"/>
    <path id="Path_276" data-name="Path 276" d="M217.314,100.91c-.041.1-.093.2-.144.3-.01.031-.031.052-.041.083-5.2,10.221-13.645,17.873-23.154,20.988a28.593,28.593,0,0,1-8.87,1.475,23.92,23.92,0,0,1-10.922-2.589,2.623,2.623,0,0,1-1.155-3.517,2.567,2.567,0,0,1,1.021-1.073,2.638,2.638,0,0,1,2.5-.072,14.635,14.635,0,0,0,1.423.639,20.721,20.721,0,0,0,14.387.175c8.23-2.7,15.573-9.427,20.153-18.472,4.569-9.014,5.642-18.9,2.929-27.135-1.856-5.662-5.311-9.9-10-12.273-6.508-3.28-14.573-2.527-22.143,2.125-.557.361-1.124.753-1.681,1.186-.1.072-.2.144-.3.227a2.612,2.612,0,0,1-3.218-4.115c.794-.619,1.588-1.2,2.434-1.733.774-.474,1.557-.918,2.341-1.32,8.488-4.414,17.44-4.816,24.918-1.031,5.951,3,10.324,8.292,12.614,15.305a33.687,33.687,0,0,1,1.289,5.394c.01.083.021.155.031.237a42.858,42.858,0,0,1-4.4,25.2" transform="translate(5.417 1.637)" fill="#050605"/>
    <path id="Path_278" data-name="Path 278" d="M137.9,21.623c-9.953-1.372-19.42,8.034-21.174,20.916a27.623,27.623,0,0,0,2.816,16.9c2.785,5.064,7.054,8.22,12.015,8.89a13.148,13.148,0,0,0,1.9.134c9.21,0,17.636-8.993,19.276-21.04,1.743-12.882-4.9-24.454-14.831-25.8m9.654,25.1c-1.361,10.025-8.261,17.451-15.3,16.44-3.28-.443-6.168-2.661-8.137-6.24A22.35,22.35,0,0,1,121.9,43.24c1.279-9.437,7.436-16.533,14.047-16.533a10.143,10.143,0,0,1,1.248.083c7.075.969,11.716,9.911,10.355,19.936" transform="translate(3.652 0.674)" fill="#050605"/>
    <path id="Path_280" data-name="Path 280" d="M178.455,43.306c-1.588,12.82-7.8,23.773-16.368,30.013a28.523,28.523,0,0,1-12.263,5.27,3.059,3.059,0,0,1-.433.031,2.611,2.611,0,0,1-.423-5.188c.021,0,.031-.01.052-.01,12.108-2.021,22.3-14.944,24.247-30.755,1.145-9.22-.547-18.193-4.765-25.289C164.419,10.5,158.437,6.249,151.661,5.4c-13.954-1.66-21.5,9.344-24.082,14.181a.638.638,0,0,1-.113.175,2.438,2.438,0,0,1-.784.8,2.579,2.579,0,0,1-2.63.1,2.611,2.611,0,0,1-1.083-3.538c2.413-4.517,11.634-19.111,29.342-16.9a24.9,24.9,0,0,1,4.538,1,.191.191,0,0,1,.072.021C163.387,3.31,168.988,7.971,173,14.706c4.8,8.086,6.735,18.245,5.456,28.6" transform="translate(3.846 0)" fill="#050605"/>
    <path id="Path_281" data-name="Path 281" d="M193.16,174.779c-2.723,10.932-8.859,18.554-18.214,22.659a2.614,2.614,0,0,1-2.1-4.786c7.911-3.465,12.9-9.736,15.254-19.152a38.825,38.825,0,0,0-1.578-24.7,41.674,41.674,0,0,0-8.168-12.562c-10.149-10.891-19.2-22.783-27.96-34.282-2.847-3.744-5.693-7.488-8.581-11.2-7.333-9.416-16.6-13.779-28.115-13.346-13.666.526-24.258,7.24-32.364,20.524-9.169,15.048-17.5,25.763-27.022,34.736a45.785,45.785,0,0,0-11.18,17.409c-.155.382-.289.763-.433,1.155-6.374,17.688-.382,34.375,14.893,41.533a2.606,2.606,0,0,1-1.1,4.971,2.461,2.461,0,0,1-1.1-.248c-17.863-8.364-24.938-27.661-17.605-48.03.413-1.155.846-2.269,1.31-3.362A50.174,50.174,0,0,1,50.73,128.863c9.158-8.632,17.224-19.008,26.145-33.653a65.854,65.854,0,0,1,4.3-6.219c8.467-10.778,19.111-16.3,32.312-16.8,13.243-.5,24.123,4.662,32.436,15.357.774.99,1.547,1.991,2.31,2.991,2.125,2.743,4.218,5.5,6.312,8.251,8.684,11.4,17.647,23.185,27.62,33.89a47.6,47.6,0,0,1,8.282,12.067,43.782,43.782,0,0,1,2.712,30.033" transform="translate(1.095 2.263)" fill="#050605"/>
    <path id="Path_283" data-name="Path 283" d="M58.547,84.169c-3.4-10.355-12.892-16.543-21.133-13.841A14.294,14.294,0,0,0,28.5,79.621a23.6,23.6,0,0,0,8.571,26.042A15.3,15.3,0,0,0,45.7,108.5a13.08,13.08,0,0,0,4.064-.65c6.229-2.052,10.014-8.622,10.014-16.182a24.213,24.213,0,0,0-1.227-7.5M40.013,101.352a18.407,18.407,0,0,1-6.58-20.008,9.186,9.186,0,0,1,5.611-6.054,7.957,7.957,0,0,1,2.444-.382,10.84,10.84,0,0,1,7.075,3,18.156,18.156,0,0,1,5.023,7.89c2.506,7.611.052,15.274-5.466,17.09a9.2,9.2,0,0,1-8.106-1.537" transform="translate(0.859 2.186)" fill="#050605"/>
    <path id="Path_285" data-name="Path 285" d="M47.947,121.166a23.994,23.994,0,0,1-10.932,2.589c-.361,0-.722-.01-1.083-.021H35.9a29.165,29.165,0,0,1-7.756-1.454c-9.54-3.125-18-10.809-23.185-21.071C-.228,90.968-1.414,79.623,1.721,70.083c2.3-7.013,6.663-12.3,12.624-15.305A22.823,22.823,0,0,1,19.1,52.993c7.085-1.856,15.037-.433,22.463,4.115.877.557,1.671,1.134,2.465,1.753a2.61,2.61,0,0,1,.454,3.661,2.607,2.607,0,0,1-3.661.454c-.567-.443-1.134-.856-1.733-1.238-.093-.072-.2-.134-.289-.2-7.529-4.61-15.584-5.394-22.1-2.1C12,61.811,8.539,66.05,6.682,71.712a28.67,28.67,0,0,0-1.134,4.9.227.227,0,0,0-.01.082A35.541,35.541,0,0,0,6.909,92.123a.591.591,0,0,0,.041.144,41.527,41.527,0,0,0,2.671,6.58c4.569,9.045,11.912,15.769,20.153,18.472a20.887,20.887,0,0,0,13.82.062,21.033,21.033,0,0,0,1.98-.877,2.653,2.653,0,0,1,2.166-.093,2.585,2.585,0,0,1,1.351,1.238,2.628,2.628,0,0,1-1.145,3.517" transform="translate(0 1.637)" fill="#050605"/>
    <path id="Path_287" data-name="Path 287" d="M106.092,42.539c-1.753-12.882-11.231-22.288-21.174-20.916-9.932,1.351-16.584,12.923-14.831,25.8,1.64,12.046,10.066,21.04,19.276,21.04a13.149,13.149,0,0,0,1.9-.134c4.961-.67,9.22-3.826,12.005-8.89a27.552,27.552,0,0,0,2.826-16.9M75.265,46.726C73.9,36.7,78.545,27.76,85.62,26.79a9.977,9.977,0,0,1,1.238-.083c6.621,0,12.779,7.1,14.057,16.533A22.35,22.35,0,0,1,98.7,56.926c-1.97,3.579-4.858,5.8-8.137,6.24-7.065.969-13.934-6.425-15.3-16.44" transform="translate(2.189 0.674)" fill="#050605"/>
    <path id="Path_288" data-name="Path 288" d="M99.344,20.616a2.64,2.64,0,0,1-3.538-1.073c-.031-.062-.072-.134-.113-.206-2.671-4.92-10.18-15.6-23.948-13.934C64.979,6.249,59,10.5,54.913,17.377,50.7,24.473,49,33.446,50.148,42.656a45.821,45.821,0,0,0,1.5,7.209c3.7,12.418,12.572,21.885,22.8,23.567a3.058,3.058,0,0,1,.681.206.418.418,0,0,1,.093.052,2.612,2.612,0,0,1-1.2,4.93,3.059,3.059,0,0,1-.433-.031A26.384,26.384,0,0,1,68.424,77.2c-12.139-4.569-21.473-17.75-23.463-33.9-1.279-10.345.66-20.5,5.456-28.589C55.357,6.414,62.7,1.267,71.106.226A25.908,25.908,0,0,1,85.431,2.361C93.94,6.269,98.767,14,100.417,17.078a2.616,2.616,0,0,1-1.073,3.538" transform="translate(1.398 0)" fill="#050605"/>
  </g>
</svg>
