<svg xmlns="http://www.w3.org/2000/svg" xmlns:xlink="http://www.w3.org/1999/xlink" width="164.399" height="200" viewBox="0 0 164.399 200"><defs><clipPath id="a"><rect width="164.399" height="200" fill="none"/></clipPath></defs><g clip-path="url(#a)"><path d="M95.387,198.44H76.917a2.61,2.61,0,0,1-2.563-2.119c-.574-3.032-14.153-74.39-14.622-89.541C59.265,91.336,69.766,72.1,87.555,67.935c10.033-2.352,39.439-4.165,55,15.262,8.223,10.277,12,24.313,10.347,38.51-1.887,16.248-10.314,30.981-23.726,41.486-12.894,10.094-25.026,11.476-30.487,11.223l-.693,21.5a2.611,2.611,0,0,1-2.608,2.523m-16.311-5.217H92.86l.7-21.655a2.613,2.613,0,0,1,.936-1.916,2.56,2.56,0,0,1,2.055-.578c.138.016,14.278,1.859,29.4-9.989A56.437,56.437,0,0,0,147.717,121.1c1.491-12.821-1.876-25.45-9.239-34.648C124.611,69.125,97.869,70.886,88.744,73.013,74,76.461,64.536,93.173,64.949,106.622c.407,13.321,11.827,74.4,14.128,86.6m12.782-51.442a9.665,9.665,0,0,1-2.185-.2,2.6,2.6,0,0,1-1.907-1.846c-.326-1.185-7.731-29.125,9.963-37.83,14.161-6.969,27.056,3.072,31.9,9.356a2.616,2.616,0,0,1,.5,2.034c-.086.489-2.229,12.079-17.429,21.1-10.738,6.374-17.585,7.384-20.849,7.384m15.869-37.052a17.232,17.232,0,0,0-7.69,1.854c-11.663,5.737-8.884,24.105-7.657,29.964,2.539-.122,8.367-1.117,17.663-6.634,10.554-6.268,13.781-13.644,14.662-16.411-2.2-2.461-8.651-8.774-16.977-8.774" transform="translate(1.4 1.56)" fill="#050605"/><path d="M140.443,68.715c-5.86,0-10.657-1.716-14.28-5.119-4.315-4.054-6.626-10.306-6.683-18.077,0-21.309,10.633-31.689,15.2-35.166,5.1-3.883,10.669-5.5,14.846-4.335C157.539,8.247,161.6,18.585,161.6,36.749c0,19.312-7.254,31.241-19.407,31.917-.591.033-1.178.049-1.748.049m6.247-57.844c-2.128,0-5.289.925-8.852,3.635-3.953,3-13.142,12.038-13.142,30.992.045,6.292,1.789,11.244,5.04,14.3,2.894,2.718,6.921,3.974,12.169,3.664,13.433-.746,14.476-20.633,14.476-26.709,0-15.095-2.93-24.223-8.248-25.7a5.38,5.38,0,0,0-1.443-.175" transform="translate(2.801 0.132)" fill="#1a1718"/><path d="M37.642,110.7c-5.579,0-12.951-2.05-21.786-9.113C6.574,94.116.827,85.073.082,76.771A17.879,17.879,0,0,1,4.413,63.139C7.8,59.232,14.394,58.3,22.976,60.523c14.32,3.7,31.412,15.457,34.064,27.984l.012.061c1.378,7.384-2.367,15.368-9.108,19.411a19.963,19.963,0,0,1-10.3,2.718M14.585,64.553c-2.9,0-5.081.676-6.235,2A12.622,12.622,0,0,0,5.277,76.3c.608,6.8,5.784,14.731,13.844,21.211,13.477,10.771,22.169,8.375,26.139,6,4.825-2.9,7.625-8.758,6.671-13.95C49.738,79.326,34.525,68.9,21.671,65.576a28.839,28.839,0,0,0-7.086-1.022" transform="translate(0 1.391)" fill="#1a1718"/><path d="M101.61,62.118c-8.64,0-18.951-4.67-23.715-18.979C74.736,33.649,73.2,15.285,79.917,6A14.166,14.166,0,0,1,91.853,0h.062c10.256.037,22.022,18.921,25.3,35.145,2.627,13.012-.493,22.442-8.563,25.878a22.559,22.559,0,0,1-7.04,1.1m-9.762-56.9a8.912,8.912,0,0,0-7.706,3.847c-5.331,7.364-4.152,23.852-1.3,32.431,5.352,16.076,18.03,16.615,23.966,14.65,7.446-3.174,6.525-13.876,5.294-19.964C108.883,20.253,97.99,5.236,91.9,5.216Z" transform="translate(1.763 0)" fill="#1a1718"/><path d="M60.173,74.109c-16.757,0-23.75-13.961-26.171-18.8-3.811-7.6-8.093-21.99-4.267-30.454a10.753,10.753,0,0,1,7.237-6.191C49.957,15.3,71.587,30.753,77.06,44.221c3.8,9.345,4.209,16.692,1.227,21.843C75.833,70.3,71.225,72.9,64.586,73.8a33.03,33.03,0,0,1-4.413.309m-19.308-50.7a10.056,10.056,0,0,0-2.564.306A5.481,5.481,0,0,0,34.49,27c-2.893,6.4.7,19.035,4.174,25.967,6.19,12.36,13.982,17.165,25.222,15.662,4.96-.672,8.285-2.416,9.886-5.184,2.135-3.68,1.613-9.491-1.544-17.262-4.439-10.93-21.318-22.781-31.364-22.781" transform="translate(0.662 0.427)" fill="#1a1718"/></g></svg>