<svg xmlns="http://www.w3.org/2000/svg" xmlns:xlink="http://www.w3.org/1999/xlink" width="197.203" height="200" viewBox="0 0 197.203 200"><defs><clipPath id="a"><rect width="197.203" height="200" fill="none"/></clipPath></defs><g clip-path="url(#a)"><path d="M197.2,62.646c0-.007,0-.013,0-.021V16.348a2.67,2.67,0,0,0-2.669-2.668h-32.4V2.668A2.669,2.669,0,0,0,159.458,0H132.8a2.67,2.67,0,0,0-2.668,2.668V13.68H66.022V2.668A2.67,2.67,0,0,0,63.353,0H36.7a2.67,2.67,0,0,0-2.67,2.668V13.68H2.671A2.669,2.669,0,0,0,0,16.348V62.632l0,.014,0,.014V197.332A2.669,2.669,0,0,0,2.671,200H194.53a2.67,2.67,0,0,0,2.669-2.668V62.667c0-.007,0-.013,0-.021M135.47,19.017V5.337h21.321v27.28H135.47Zm-96.106,0V5.337H60.685v27.28H39.364Zm-5.337,0V35.286a2.67,2.67,0,0,0,2.67,2.668H63.353a2.67,2.67,0,0,0,2.669-2.668V19.017h64.112V35.286a2.67,2.67,0,0,0,2.668,2.668h26.657a2.669,2.669,0,0,0,2.669-2.668V19.017h29.734V59.975H5.339V19.017ZM5.339,65.316H191.862V194.663H5.339Z" fill="#050605"/><path d="M99.624,126.561V94.512a16,16,0,0,1,13.757,15.8,2.605,2.605,0,0,0,5.21,0A21.186,21.186,0,0,0,99.624,89.3v-8.59a2.605,2.605,0,0,0-5.21,0v8.658a21.128,21.128,0,0,0,0,41.873V163.29a16.031,16.031,0,0,1-13.077-15.727,2.605,2.605,0,0,0-5.21,0A21.2,21.2,0,0,0,94.414,168.5v8.658a2.605,2.605,0,1,0,5.21,0v-8.589a21.113,21.113,0,0,0,0-42.007M81.337,110.308A16.029,16.029,0,0,1,94.414,94.582v31.452a16.03,16.03,0,0,1-13.077-15.726m18.287,53.05V131.772a15.944,15.944,0,0,1,0,31.587" transform="translate(1.952 2.003)" fill="#050605"/></g></svg>