<svg xmlns="http://www.w3.org/2000/svg" xmlns:xlink="http://www.w3.org/1999/xlink" width="234.375" height="200" viewBox="0 0 234.375 200"><defs><clipPath id="a"><rect width="234.375" height="200" fill="none"/></clipPath></defs><g clip-path="url(#a)"><path d="M231.771,163.281h-26.1a2.606,2.606,0,0,1-2.6-2.6V97.156l-17.948,64.222a2.6,2.6,0,0,1-2.507,1.9H154.367a2.6,2.6,0,0,1-2.507-1.9l-17.2-61.642v60.942a2.606,2.606,0,0,1-2.6,2.6H84.787a2.61,2.61,0,0,1-2.205-1.216L59.433,125.305,36.28,162.064a2.61,2.61,0,0,1-2.205,1.216H2.605A2.607,2.607,0,0,1,.4,159.289L40.6,95.4,5.067,38.92a2.607,2.607,0,0,1,2.205-3.992H38.746a2.608,2.608,0,0,1,2.206,1.216l18.477,29.37L77.874,36.149a2.6,2.6,0,0,1,2.205-1.221H142.95a2.6,2.6,0,0,1,2.506,1.9l23.072,82.548L191.6,36.833a2.6,2.6,0,0,1,2.507-1.9h37.667a2.607,2.607,0,0,1,2.605,2.6V160.677a2.607,2.607,0,0,1-2.605,2.6m-23.494-5.208h20.89V40.136H196.082l-25.048,89.621a2.6,2.6,0,0,1-5.013,0L140.972,40.136H81.52L61.638,71.794a2.6,2.6,0,0,1-4.41,0L37.31,40.136H11.989L45.883,94.01a2.607,2.607,0,0,1,0,2.775L7.321,158.073H32.639l24.589-39.042a2.709,2.709,0,0,1,4.41,0l24.586,39.042h43.225V80.717a2.6,2.6,0,0,1,5.111-.7l21.786,78.055h24.292l22.529-80.611a2.672,2.672,0,0,1,2.861-1.88,2.6,2.6,0,0,1,2.25,2.581Zm-102.323-11.1a2.613,2.613,0,0,1-2.205-1.216L72.942,96.785a2.611,2.611,0,0,1,0-2.775l30.807-48.933a2.638,2.638,0,0,1,2.925-1.115,2.606,2.606,0,0,1,1.884,2.5v97.9a2.606,2.606,0,0,1-1.884,2.5,2.544,2.544,0,0,1-.72.1M78.224,95.4l25.126,39.942V55.489Z" transform="translate(0 0.896)" fill="#1a1718"/></g></svg>