<svg xmlns="http://www.w3.org/2000/svg" xmlns:xlink="http://www.w3.org/1999/xlink" width="186.149" height="200" viewBox="0 0 186.149 200"><defs><clipPath id="a"><rect width="186.149" height="200" fill="none"/></clipPath></defs><g clip-path="url(#a)"><path d="M167.568,162.216a2.606,2.606,0,0,1-1.991-4.289,93.767,93.767,0,0,0,11.329-16.791,2.607,2.607,0,0,1,4.61,2.435,99.075,99.075,0,0,1-11.957,17.719,2.6,2.6,0,0,1-1.991.925" transform="translate(4.331 3.669)" fill="#050605"/><path d="M98.578,199.922a99.682,99.682,0,0,1-11.533-.668,2.608,2.608,0,0,1,.6-5.181,93.992,93.992,0,0,0,37.988-3.36,2.6,2.6,0,1,1,1.515,4.985,98.327,98.327,0,0,1-28.572,4.224m-19.023-1.894a2.6,2.6,0,0,1-.521-.052,97.568,97.568,0,0,1-36.986-15.907,2.608,2.608,0,0,1,3-4.268,92.375,92.375,0,0,0,35.023,15.068,2.606,2.606,0,0,1-.513,5.16m54.29-4.817a2.607,2.607,0,0,1-.961-5.03,93.1,93.1,0,0,0,31.83-21,2.606,2.606,0,1,1,3.7,3.672,98.3,98.3,0,0,1-33.606,22.174,2.568,2.568,0,0,1-.962.184M37.279,177.743a2.6,2.6,0,0,1-1.666-.6,98.577,98.577,0,0,1-25.086-31.485,2.606,2.606,0,1,1,4.65-2.353,93.5,93.5,0,0,0,23.767,29.83,2.606,2.606,0,0,1-1.666,4.61M9.59,139.906a2.608,2.608,0,0,1-2.415-1.625A97.817,97.817,0,0,1,0,101.351q0-1.35.036-2.7a2.608,2.608,0,0,1,5.213.147q-.037,1.272-.037,2.549a92.585,92.585,0,0,0,6.793,34.967,2.607,2.607,0,0,1-2.415,3.588M3.18,93.464a2.324,2.324,0,0,1-.289-.016,2.6,2.6,0,0,1-2.3-2.876A97.438,97.438,0,0,1,13.093,52.3a2.607,2.607,0,0,1,4.521,2.6A92.3,92.3,0,0,0,5.767,91.142,2.608,2.608,0,0,1,3.18,93.464M19.559,49.538a2.606,2.606,0,0,1-2.142-4.089,98.765,98.765,0,0,1,29.122-27.8A2.608,2.608,0,0,1,49.3,22.078,93.435,93.435,0,0,0,21.71,48.414a2.607,2.607,0,0,1-2.151,1.124M54.787,18.57a2.607,2.607,0,0,1-1.2-4.924A97.418,97.418,0,0,1,92.4,2.961a2.608,2.608,0,0,1,.325,5.205A92.183,92.183,0,0,0,55.976,18.281a2.606,2.606,0,0,1-1.189.289" transform="translate(0 0.078)" fill="#050605"/><path d="M118.874,10.728a2.746,2.746,0,0,1-.623-.073,93.464,93.464,0,0,0-20.082-2.64A2.606,2.606,0,0,1,95.62,5.352,2.566,2.566,0,0,1,98.283,2.8a98.886,98.886,0,0,1,21.206,2.785,2.607,2.607,0,0,1-.615,5.139" transform="translate(2.511 0.074)" fill="#050605"/><path d="M159.657,22.986a3.573,3.573,0,0,0-1.873-2.016l-10.825-4.945c-.827-3.685-3.267-14.4-3.78-15.15A1.961,1.961,0,0,0,141.53.005a1.388,1.388,0,0,0-1.157.847c-.366.8-.7,8.435-.83,11.787l-7.575-3.462c-.24-4.773-.819-5.034-1.067-5.148l-.318-.1-.22.1c-.456.216-.664.892-1.2,2.826a32.027,32.027,0,0,1-1.508,4.524,22.047,22.047,0,0,1-2.26,3.572c-.989,1.36-1.589,2.183-1.417,2.839a.818.818,0,0,0,.472.545c1.092.5,3.226-1.312,4.57-2.6l7.823,3.575c-2.448,2.289-8.007,7.538-8.373,8.34a1.4,1.4,0,0,0,.118,1.43,1.841,1.841,0,0,0,1.49.688,1.674,1.674,0,0,0,.248-.016c.9-.1,10.6-5.27,13.932-7.058l10.536,4.814a3.537,3.537,0,0,0,2.748.1,3.589,3.589,0,0,0,2.114-4.622" transform="translate(3.254 0)" fill="#050605"/><path d="M97.966,25.926a74.821,74.821,0,1,0,74.823,74.819A74.905,74.905,0,0,0,97.966,25.926M149.46,53.955c-.946,2.455-2.839,7.339-3.955,10.052a14.144,14.144,0,0,1-7.7,7.864c-3.335,1.519-4.606,1.45-7.673,1.3-.777-.041-1.637-.089-2.63-.114-4.439-.212-11.692,1.852-14.579,4.879a4.858,4.858,0,0,0-1.516,3.767c.2,2.862,2.257,4.149,3.482,4.919,1.034.652,1.307.879,1.4,1.369.766,3.852,2.277,8.739,5.135,10.164,1.727.868,3.7.4,5.62-.04a11.269,11.269,0,0,1,2.876-.469c.093.778-.045,2.811-1.409,6.488-.521,1.4-3.608,4.362-5.864,6.52-4.4,4.215-7.111,6.935-7.286,9.668-.207,3.364,2.489,4.753,3.935,5.5a6.426,6.426,0,0,1,1,.571c-.489,1.775-4.411,4.65-6.516,6.2a17.9,17.9,0,0,0-3.625,3.066,9.2,9.2,0,0,0-1.458,3.434,21.489,21.489,0,0,1-2.655,6.255c-2.615,4.349-10.78,6.218-14.335,5.03-3.25-1.084-4.7-8.963-5.4-12.751-.488-2.667.224-4.162,1.124-6.06a15.658,15.658,0,0,0,1.389-3.743c.705-3.534-2.378-6.565-4.85-9A16.432,16.432,0,0,1,82,116.673a13.072,13.072,0,0,1-.834-2.239,41.954,41.954,0,0,0-2.207-5.816c-2.354-5.189-11.591-4.68-18.363-4.305-1.372.07-3.091.163-3.5.11-.83-.174-4.923-3.079-4.325-12.62.525-8.422,3.2-14.477,7.73-17.5,3.9-2.614,8.4-3.759,13.83-3.706,2.574.056,3.645,1.039,5.258,2.529a15.483,15.483,0,0,0,4.309,3.066C88.041,78.033,104.221,79,108.922,74.8c2.582-2.3,3.131-7.159,3.139-10.824,0-.953-.065-9.359-2.912-11.921-2.15-1.934-5.107-1.364-7.709-.863-1.535.294-3.271.623-4.264.314a3.165,3.165,0,0,1-1.56-2.061,7.194,7.194,0,0,1,.921-6.268c1.857-2.6,13.034-6.878,20.841-9.263A69.719,69.719,0,0,1,149.46,53.955m-51.493,116.4a69.609,69.609,0,1,1,9.421-138.563c-6.013,2.243-12.941,5.344-15.094,8.354A12.39,12.39,0,0,0,90.673,51.1a8.03,8.03,0,0,0,4.948,5.38c2.257.708,4.667.24,6.805-.171a31.032,31.032,0,0,1,3.136-.488c1.43,1.967,2.04,13.167-.114,15.093-2.35,2.1-15.777,2.142-19.442.509a10.72,10.72,0,0,1-2.887-2.139c-1.841-1.694-4.134-3.8-8.679-3.906A28.488,28.488,0,0,0,57.6,69.966c-4.137,2.765-9.236,8.74-10.034,21.51-.734,11.774,4.65,17.243,8.442,18.046a22.3,22.3,0,0,0,4.875,0c10.3-.554,12.93.37,13.329,1.254a37.55,37.55,0,0,1,1.971,5.185A17.784,17.784,0,0,0,77.331,119a15.2,15.2,0,0,0,2.988,3.526c1.034,1.015,3.454,3.4,3.393,4.264a11.253,11.253,0,0,1-.977,2.526,13.65,13.65,0,0,0-1.543,9.245c1.01,5.5,2.7,14.693,8.874,16.75a13.462,13.462,0,0,0,4.2.594c5.653,0,13.052-2.553,16.253-7.888a26.572,26.572,0,0,0,3.221-7.587,5.378,5.378,0,0,1,.579-1.641,25.874,25.874,0,0,1,2.553-2.007c3.331-2.444,7.48-5.49,8.454-9,1.144-4.134-2.207-5.861-3.641-6.6-.416-.216-1.055-.53-1.128-.444.3-1.152,3.677-4.389,5.7-6.32,3.193-3.059,6.21-5.946,7.147-8.475,2.843-7.673,1.507-10.206,1.067-11.036a4.456,4.456,0,0,0-2.88-2.273,12.3,12.3,0,0,0-5.721.4c-.766.18-1.922.448-2.044.5-.428-.329-1.585-2.361-2.416-6.553a7.1,7.1,0,0,0-3.75-4.772c-.705-.444-.839-.648-1.043-.6.956-1.3,6.532-3.625,10.755-3.335.937.025,1.751.066,2.485.106a17.79,17.79,0,0,0,10.108-1.751,19.342,19.342,0,0,0,10.36-10.629c.8-1.932,1.982-4.957,2.948-7.445A69.559,69.559,0,0,1,97.966,170.356" transform="translate(0.608 0.681)" fill="#050605"/></g></svg>