<svg xmlns="http://www.w3.org/2000/svg" xmlns:xlink="http://www.w3.org/1999/xlink" width="200.97" height="200" viewBox="0 0 200.97 200"><defs><clipPath id="a"><rect width="200.97" height="200" fill="none"/></clipPath></defs><g clip-path="url(#a)"><path d="M5.472,144.126A2.608,2.608,0,0,1,3.166,140.3l17.987-34.053C7.493,94.507,0,79.161,0,62.817,0,28.181,34.2,0,76.247,0S152.5,28.181,152.5,62.817a52.234,52.234,0,0,1-.4,6.479,2.608,2.608,0,0,1-5.175-.644,47.478,47.478,0,0,0,.362-5.835c0-31.763-31.864-57.6-71.032-57.6S5.215,31.054,5.215,62.817c0,15.387,7.412,29.861,20.871,40.756a2.607,2.607,0,0,1,.664,3.244L11.389,135.9l39.884-18.5a2.614,2.614,0,0,1,1.8-.143,86.21,86.21,0,0,0,10.66,2.257,2.607,2.607,0,1,1-.75,5.159A90.224,90.224,0,0,1,52.6,122.537L6.568,143.886a2.6,2.6,0,0,1-1.1.24" fill="#050605"/><path d="M194.093,197.948a2.591,2.591,0,0,1-1.1-.241l-38.022-17.631a76.155,76.155,0,0,1-19.567,2.538c-35.1,0-63.665-23.564-63.665-52.528s28.56-52.533,63.665-52.533,63.665,23.565,63.665,52.533c0,13.577-6.17,26.328-17.424,36.115L196.4,194.122a2.608,2.608,0,0,1-2.306,3.827M155.206,174.7a2.632,2.632,0,0,1,1.1.24l31.873,14.78-12.122-22.945a2.61,2.61,0,0,1,.664-3.244c11.052-8.945,17.139-20.823,17.139-33.446,0-26.091-26.221-47.317-58.448-47.317s-58.45,21.225-58.45,47.317,26.222,47.312,58.45,47.312a70.836,70.836,0,0,0,19.094-2.6,2.632,2.632,0,0,1,.705-.1" transform="translate(1.898 2.052)" fill="#1a1718"/></g></svg>