<svg xmlns="http://www.w3.org/2000/svg" xmlns:xlink="http://www.w3.org/1999/xlink" width="199.362" height="200" viewBox="0 0 199.362 200"><defs><clipPath id="a"><rect width="199.362" height="200" fill="none"/></clipPath></defs><g clip-path="url(#a)"><path d="M140.242,119.29l5.836-5.836a2.612,2.612,0,0,0-3.694-3.694l-14.355,14.355-15.076-15.076,22.125-22.126a45,45,0,0,0,59.051-61.648,2.609,2.609,0,0,0-4.154-.631L166.035,48.577l-16.561,1.941,1.94-16.561,23.745-23.74a2.611,2.611,0,0,0-.678-4.179,44.96,44.96,0,0,0-61.174,58.648L90.953,87.039,37.369,33.455,41.829,29a2.613,2.613,0,0,0,0-3.694L17.267.734a2.684,2.684,0,0,0-3.695,0L.954,13.361a2.615,2.615,0,0,0,0,3.69L25.518,41.614a2.615,2.615,0,0,0,3.69,0l4.467-4.466L87.258,90.732,4.538,173.447a15.561,15.561,0,0,0,22.007,22.007l82.715-82.72,15.075,15.075-15.627,15.627a2.612,2.612,0,0,0,3.694,3.694l5.834-5.834,53.176,53.175a15.561,15.561,0,1,0,22.007-22.007ZM27.365,36.078,6.491,15.2l8.929-8.933L36.3,27.149Zm78.2,72.964L22.852,191.76a10.338,10.338,0,0,1-14.62-14.62L90.951,94.424l3.694-3.694L118.3,67.075a2.609,2.609,0,0,0,.485-3.017,39.732,39.732,0,0,1,50-54.852l-21.705,21.7a2.638,2.638,0,0,0-.746,1.544l-2.43,20.74a2.626,2.626,0,0,0,.746,2.148,2.658,2.658,0,0,0,2.148.746l20.74-2.43a2.638,2.638,0,0,0,1.544-.746l21.963-21.966A39.786,39.786,0,0,1,135.78,81.43a2.6,2.6,0,0,0-3.062.461l-23.456,23.457Zm84.162,81.737a10.348,10.348,0,0,1-14.624,0L121.929,137.6l7.946-7.945h0l6.672-6.672,53.177,53.174a10.35,10.35,0,0,1,0,14.62" transform="translate(0 0)" fill="#050605"/></g></svg>